<svg
    xmlns="http://www.w3.org/2000/svg"
    viewBox="0 0 100 100"
    id="vector">
    <path
        id="path"
        d="M 19.41 34.35 L 19.41 15.16 C 19.41 14.63 19.621 14.121 19.996 13.746 C 20.371 13.371 20.88 13.16 21.41 13.16 L 34.94 13.16"
        fill="#00000000"
        stroke-width="6"
        stroke-linecap="round"/>
    <path
        id="path_1"
        d="M 19.41 67 L 19.41 85.8 C 19.41 86.33 19.621 86.839 19.996 87.214 C 20.371 87.589 20.88 87.8 21.41 87.8 L 34.94 87.8"
        fill="#00000000"
        stroke-width="6"
        stroke-linecap="round"/>
    <path
        id="path_2"
        d="M 82 67 L 82 85.8 C 82 86.33 81.789 86.839 81.414 87.214 C 81.039 87.589 80.53 87.8 80 87.8 L 66 87.8"
        fill="#00000000"
        stroke-width="6"
        stroke-linecap="round"/>
    <path
        id="path_3"
        d="M 66 13.18 L 80 13.18 C 80.53 13.18 81.039 13.391 81.414 13.766 C 81.789 14.141 82 14.65 82 15.18 L 82 34.35"
        fill="#00000000"
        stroke-width="6"
        stroke-linecap="round"/>
    <path
        id="path_4"
        d="M 23.19 49.86 C 23.172 57.013 24.966 63.993 28.313 69.788 C 31.659 75.583 36.389 79.901 41.816 82.116 C 47.244 84.331 53.096 84.331 58.524 82.116 C 63.951 79.901 68.681 75.583 72.027 69.788 C 75.374 63.993 77.168 57.013 77.15 49.86 C 77.15 40.896 74.306 32.291 69.248 25.953 C 64.19 19.615 57.323 16.05 50.17 16.05 C 43.017 16.05 36.15 19.615 31.092 25.953 C 26.034 32.291 23.19 40.896 23.19 49.86 Z"
        fill="none"/>
    <path
        id="path_5"
        d="M 35 29.69 C 33.881 30.797 32.876 32.013 32 33.32 C 30.26 35.933 29.009 38.84 28.31 41.9 C 27.951 43.444 27.727 45.017 27.64 46.6 C 27.554 48.212 27.607 49.828 27.8 51.43 L 27.8 52 C 27.8 52.07 27.8 52.14 27.8 52.2 C 27.63 52.71 27.47 53.2 27.33 53.75 C 27.19 54.3 27.06 54.75 26.95 55.31 C 26.84 55.87 26.74 56.36 26.66 56.89 C 26.58 57.42 26.52 57.95 26.47 58.48"
        fill="#00000000"
        stroke="#f2f2f2"
        stroke-width="1"
        stroke-linecap="round"
        stroke-linejoin="round"/>
    <path
        id="path_6"
        d="M 69.41 36.11 C 68.11 33.538 66.371 31.213 64.27 29.24 C 62.253 27.337 59.895 25.83 57.32 24.8 C 54.727 23.768 51.949 23.285 49.16 23.38 L 48.54 23.38 L 47.92 23.43 L 47.31 23.5 C 47.105 23.52 46.902 23.55 46.7 23.59 C 45.235 23.817 43.799 24.206 42.42 24.75"
        fill="#00000000"
        stroke="#f2f2f2"
        stroke-width="1"
        stroke-linecap="round"
        stroke-linejoin="round"/>
    <path
        id="path_7"
        d="M 71.12 65.06 C 71.639 62.776 72.01 60.462 72.23 58.13 C 72.45 55.93 72.53 53.89 72.53 52.08 C 72.53 50.27 72.45 48.7 72.36 47.47 C 72.27 46.24 72.16 45.32 72.1 44.84"
        fill="#00000000"
        stroke="#f2f2f2"
        stroke-width="1"
        stroke-linecap="round"
        stroke-linejoin="round"/>
    <path
        id="path_8"
        d="M 72.1 44.84 C 72.16 45.32 72.27 46.23 72.36 47.47 C 72.45 48.71 72.53 50.27 72.53 52.08 C 72.53 53.89 72.45 55.93 72.23 58.13 C 72.01 60.462 71.639 62.776 71.12 65.06"
        fill="#00000000"
        stroke="#f2f2f2"
        stroke-width="1"
        stroke-linecap="round"
        stroke-linejoin="round"/>
    <path
        id="path_9"
        d="M 42.42 24.78 C 43.799 24.236 45.235 23.847 46.7 23.62 C 46.902 23.58 47.105 23.55 47.31 23.53 L 47.92 23.46 L 48.54 23.41 L 49.16 23.41 C 51.949 23.315 54.727 23.798 57.32 24.83 C 59.895 25.86 62.253 27.367 64.27 29.27 C 66.371 31.243 68.11 33.568 69.41 36.14"
        fill="#00000000"
        stroke="#f2f2f2"
        stroke-width="1"
        stroke-linecap="round"
        stroke-linejoin="round"/>
    <path
        id="path_10"
        d="M 26.5 58.46 C 26.55 57.93 26.61 57.4 26.69 56.87 C 26.77 56.34 26.87 55.81 26.98 55.29 C 27.09 54.77 27.21 54.29 27.36 53.73 C 27.51 53.17 27.66 52.73 27.83 52.18 C 27.83 52.12 27.83 52.05 27.83 51.98 L 27.83 51.43 C 27.637 49.828 27.584 48.212 27.67 46.6 C 27.757 45.017 27.981 43.444 28.34 41.9 C 29.03 38.842 30.27 35.935 32 33.32 C 32.876 32.013 33.881 30.797 35 29.69"
        fill="#00000000"
        stroke="#f2f2f2"
        stroke-width="1"
        stroke-linecap="round"
        stroke-linejoin="round"/>
    <path
        id="path_11"
        d="M 56.27 28.16 C 58.496 29.034 60.533 30.327 62.27 31.97 C 64.073 33.658 65.563 35.652 66.67 37.86 C 67.857 40.205 68.638 42.734 68.98 45.34 C 69.05 45.88 69.18 46.99 69.28 48.52 C 69.38 50.05 69.42 52 69.34 54.23 C 69.254 56.684 69.003 59.13 68.59 61.55 C 68.126 64.277 67.409 66.955 66.45 69.55 L 66.33 69.87 C 66.33 69.97 66.24 70.08 66.2 70.19 L 66.07 70.5 C 66.07 70.6 65.98 70.71 65.93 70.81"
        fill="#00000000"
        stroke="#f2f2f2"
        stroke-width="1"
        stroke-linecap="round"
        stroke-linejoin="round"/>
    <path
        id="path_12"
        d="M 31.43 42.85 C 31.733 41.532 32.151 40.244 32.68 39 C 33.216 37.761 33.862 36.573 34.61 35.45 C 35.352 34.335 36.199 33.293 37.14 32.34 C 38.057 31.424 39.062 30.6 40.14 29.88 C 41.2 29.181 42.329 28.595 43.51 28.13 C 44.694 27.665 45.924 27.33 47.18 27.13 L 47.7 27.05 L 48.23 26.99 L 48.76 26.99 L 49.29 26.99"
        fill="#00000000"
        stroke="#f2f2f2"
        stroke-width="1"
        stroke-linecap="round"
        stroke-linejoin="round"/>
    <path
        id="path_13"
        d="M 29.91 65.07 C 29.741 64.078 29.634 63.076 29.59 62.07 C 29.501 60.056 29.675 58.039 30.11 56.07 C 30.337 55.044 30.635 54.035 31 53.05 C 31 52.94 31 52.8 31 52.64 C 31 52.48 31 52.29 31 52.1 C 31.01 51.913 31.01 51.727 31 51.54 C 31 51.36 31 51.19 31 51.05 C 30.829 49.674 30.782 48.285 30.86 46.9"
        fill="#00000000"
        stroke="#f2f2f2"
        stroke-width="1"
        stroke-linecap="round"
        stroke-linejoin="round"/>
    <path
        id="path_14"
        d="M 56.27 28.16 C 58.496 29.034 60.533 30.327 62.27 31.97 C 64.073 33.658 65.563 35.652 66.67 37.86 C 67.857 40.205 68.638 42.734 68.98 45.34 C 69.05 45.88 69.18 46.99 69.28 48.52 C 69.38 50.05 69.42 52 69.34 54.23 C 69.254 56.684 69.003 59.13 68.59 61.55 C 68.126 64.277 67.409 66.955 66.45 69.55 L 66.33 69.87 C 66.33 69.97 66.24 70.08 66.2 70.19 L 66.07 70.5 C 66.07 70.6 65.98 70.71 65.93 70.81"
        fill="#00000000"
        stroke="#f2f2f2"
        stroke-width="1"
        stroke-linecap="round"
        stroke-linejoin="round"/>
    <path
        id="path_15"
        d="M 31.43 42.85 C 31.733 41.532 32.151 40.244 32.68 39 C 33.216 37.761 33.862 36.573 34.61 35.45 C 35.352 34.335 36.199 33.293 37.14 32.34 C 38.057 31.424 39.062 30.6 40.14 29.88 C 41.2 29.181 42.329 28.595 43.51 28.13 C 44.694 27.665 45.924 27.33 47.18 27.13 L 47.7 27.05 L 48.23 26.99 L 48.76 26.99 L 49.29 26.99"
        fill="#00000000"
        stroke="#f2f2f2"
        stroke-width="1"
        stroke-linecap="round"
        stroke-linejoin="round"/>
    <path
        id="path_16"
        d="M 29.91 65.07 C 29.741 64.078 29.634 63.076 29.59 62.07 C 29.501 60.056 29.675 58.039 30.11 56.07 C 30.337 55.044 30.635 54.035 31 53.05 C 31 52.94 31 52.8 31 52.64 C 31 52.48 31 52.29 31 52.1 C 31.01 51.913 31.01 51.727 31 51.54 C 31 51.36 31 51.19 31 51.05 C 30.829 49.674 30.782 48.285 30.86 46.9"
        fill="#00000000"
        stroke="#f2f2f2"
        stroke-width="1"
        stroke-linecap="round"
        stroke-linejoin="round"/>
    <path
        id="path_17"
        d="M 63.86 39.61 C 64.848 41.564 65.5 43.67 65.79 45.84 C 65.85 46.34 65.97 47.37 66.06 48.78 C 66.15 50.19 66.19 51.99 66.12 54.04 C 66.041 56.303 65.811 58.558 65.43 60.79 C 64.999 63.318 64.33 65.799 63.43 68.2 C 63.187 68.856 62.906 69.497 62.59 70.12 C 62.29 70.725 61.956 71.313 61.59 71.88 C 61.221 72.436 60.82 72.97 60.39 73.48 C 59.955 73.984 59.491 74.461 59 74.91"
        fill="#00000000"
        stroke="#f2f2f2"
        stroke-width="1"
        stroke-linecap="round"
        stroke-linejoin="round"/>
    <path
        id="path_18"
        d="M 44.58 31.51 C 45.567 31.123 46.593 30.845 47.64 30.68 L 48.08 30.62 L 48.52 30.57 L 48.96 30.57 L 49.4 30.57 C 51.388 30.498 53.37 30.838 55.22 31.57 C 57.073 32.299 58.77 33.375 60.22 34.74"
        fill="#00000000"
        stroke="#f2f2f2"
        stroke-width="1"
        stroke-linecap="round"
        stroke-linejoin="round"/>
    <path
        id="path_19"
        d="M 35.5 71.09 C 35.35 70.84 35.21 70.58 35.07 70.33 C 34.93 70.08 34.8 69.8 34.67 69.53 C 34.54 69.26 34.42 68.99 34.3 68.72 L 34 67.88 C 33.599 66.779 33.294 65.644 33.09 64.49 C 32.683 62.208 32.683 59.872 33.09 57.59 C 33.293 56.445 33.598 55.321 34 54.23 C 34.067 54.022 34.111 53.808 34.13 53.59 C 34.13 53.31 34.2 52.99 34.22 52.59 C 34.24 52.19 34.22 51.88 34.22 51.59 C 34.22 51.3 34.22 50.91 34.22 50.59 C 33.93 48.301 34.045 45.979 34.56 43.73 C 34.792 42.631 35.127 41.556 35.56 40.52 C 35.995 39.471 36.531 38.466 37.16 37.52 C 37.785 36.615 38.495 35.771 39.28 35 C 40.045 34.252 40.882 33.582 41.78 33"
        fill="#00000000"
        stroke="#f2f2f2"
        stroke-width="1"
        stroke-linecap="round"
        stroke-linejoin="round"/>
    <path
        id="path_20"
        d="M 58.64 70.29 C 57.894 71.315 57.005 72.228 56 73 C 55.026 73.752 53.944 74.352 52.79 74.78 C 51.636 75.207 50.42 75.447 49.19 75.49 C 48.73 75.515 48.27 75.515 47.81 75.49 C 47.353 75.449 46.899 75.382 46.45 75.29 C 45.997 75.191 45.55 75.068 45.11 74.92 C 44.663 74.771 44.225 74.594 43.8 74.39 C 42.198 73.622 40.772 72.533 39.61 71.19 C 38.442 69.83 37.528 68.272 36.91 66.59 C 36.269 64.871 35.931 63.054 35.91 61.22 C 35.901 59.328 36.24 57.45 36.91 55.68 C 37.059 55.259 37.163 54.823 37.22 54.38 C 37.296 53.876 37.346 53.369 37.37 52.86 C 37.37 52.35 37.37 51.86 37.37 51.4 C 37.37 50.94 37.37 50.55 37.31 50.25 M 54.18 34.89 C 55.662 35.472 57.019 36.33 58.18 37.42 C 59.377 38.553 60.371 39.882 61.12 41.35 C 61.909 42.919 62.43 44.609 62.66 46.35 C 62.72 46.81 62.83 47.75 62.91 49.04 C 62.99 50.33 63.03 51.99 62.97 53.87 C 62.885 55.926 62.665 57.973 62.31 60 C 61.932 62.306 61.332 64.569 60.52 66.76 M 37.61 44.71 C 37.808 43.825 38.089 42.962 38.45 42.13 C 38.803 41.299 39.231 40.503 39.73 39.75 C 40.228 39.006 40.798 38.313 41.43 37.68 C 42.038 37.065 42.708 36.515 43.43 36.04 C 44.841 35.095 46.442 34.47 48.12 34.21 L 48.47 34.16 L 48.82 34.16 L 49.18 34.16 L 49.53 34.16 M 63.87 39.69 C 64.858 41.644 65.51 43.75 65.8 45.92 C 65.86 46.42 65.98 47.45 66.07 48.86 C 66.16 50.27 66.2 52.07 66.13 54.12 C 66.051 56.383 65.821 58.638 65.44 60.87 C 65.009 63.398 64.34 65.879 63.44 68.28 C 63.197 68.936 62.916 69.577 62.6 70.2 C 62.3 70.805 61.966 71.393 61.6 71.96 C 61.231 72.516 60.83 73.05 60.4 73.56 C 59.96 74.037 59.492 74.487 59 74.91 M 44.58 31.51 C 45.567 31.123 46.593 30.845 47.64 30.68 L 48.08 30.62 L 48.52 30.57 L 48.96 30.57 L 49.4 30.57 C 51.388 30.498 53.37 30.838 55.22 31.57 C 57.073 32.299 58.77 33.375 60.22 34.74 M 35.5 71.09 C 35.35 70.84 35.21 70.58 35.07 70.33 C 34.93 70.08 34.8 69.8 34.67 69.53 C 34.54 69.26 34.42 68.99 34.3 68.72 L 34 67.88 C 33.599 66.779 33.294 65.644 33.09 64.49 C 32.683 62.208 32.683 59.872 33.09 57.59 C 33.293 56.445 33.598 55.321 34 54.23 C 34.067 54.022 34.111 53.808 34.13 53.59 C 34.13 53.31 34.2 52.99 34.22 52.59 C 34.24 52.19 34.22 51.88 34.22 51.59 C 34.22 51.3 34.22 50.91 34.22 50.59 C 33.93 48.301 34.045 45.979 34.56 43.73 C 34.792 42.631 35.127 41.556 35.56 40.52 C 35.995 39.471 36.531 38.466 37.16 37.52 C 37.785 36.615 38.495 35.771 39.28 35 C 40.045 34.252 40.882 33.582 41.78 33"
        fill="#00000000"
        stroke="#f2f2f2"
        stroke-width="1"
        stroke-linecap="round"
        stroke-linejoin="round"/>
    <path
        id="path_21"
        d="M 49.52 34.08 L 49.17 34.08 L 48.81 34.08 L 48.46 34.08 L 48.11 34.13 C 46.429 34.402 44.827 35.041 43.42 36 C 42.698 36.475 42.028 37.025 41.42 37.64 C 40.788 38.273 40.218 38.966 39.72 39.71 C 39.221 40.463 38.793 41.259 38.44 42.09 C 38.079 42.922 37.798 43.785 37.6 44.67 M 60.52 66.8 C 61.335 64.596 61.934 62.319 62.31 60 C 62.657 57.956 62.867 55.892 62.94 53.82 C 63 52 63 50.33 62.88 49 C 62.76 47.67 62.69 46.77 62.63 46.31 C 62.4 44.569 61.879 42.879 61.09 41.31 C 60.341 39.842 59.347 38.513 58.15 37.38 C 56.989 36.29 55.632 35.432 54.15 34.85 M 37.35 50.2 C 37.35 50.5 37.35 50.9 37.41 51.35 C 37.47 51.8 37.41 52.3 37.41 52.81 C 37.386 53.319 37.336 53.826 37.26 54.33 C 37.203 54.773 37.099 55.209 36.95 55.63 C 36.28 57.4 35.941 59.278 35.95 61.17 C 35.971 63.004 36.309 64.821 36.95 66.54 C 37.568 68.222 38.482 69.78 39.65 71.14 C 40.812 72.483 42.238 73.572 43.84 74.34 C 44.265 74.544 44.703 74.721 45.15 74.87 C 45.59 75.018 46.037 75.141 46.49 75.24 C 46.939 75.332 47.393 75.399 47.85 75.44 C 48.31 75.465 48.77 75.465 49.23 75.44 C 50.46 75.397 51.676 75.157 52.83 74.73 C 53.967 74.314 55.035 73.731 56 73 C 57.001 72.23 57.887 71.321 58.63 70.3 M 59.18 59.3 C 58.836 61.387 58.294 63.436 57.56 65.42 C 57.215 66.341 56.744 67.209 56.16 68 C 55.589 68.756 54.916 69.429 54.16 70 C 53.426 70.558 52.614 71.006 51.75 71.33 C 50.888 71.652 49.98 71.831 49.06 71.86 C 48.727 71.879 48.393 71.879 48.06 71.86 C 47.724 71.83 47.39 71.78 47.06 71.71 C 46.722 71.64 46.388 71.549 46.06 71.44 C 45.72 71.325 45.386 71.191 45.06 71.04 C 43.859 70.466 42.789 69.648 41.92 68.64 C 41.046 67.623 40.368 66.453 39.92 65.19 C 39.449 63.909 39.202 62.555 39.19 61.19 C 39.163 59.762 39.401 58.342 39.89 57 C 40.124 56.352 40.292 55.682 40.39 55 C 40.495 54.308 40.562 53.61 40.59 52.91 C 40.59 52.23 40.59 51.59 40.59 51.04 C 40.59 50.49 40.53 50.04 40.5 49.73 C 40.409 49.037 40.382 48.338 40.42 47.64 C 40.451 46.967 40.542 46.297 40.69 45.64 C 40.847 44.977 41.058 44.329 41.32 43.7 C 41.597 43.074 41.932 42.474 42.32 41.91 C 42.691 41.349 43.116 40.827 43.59 40.35 C 44.044 39.894 44.544 39.486 45.08 39.13 C 45.609 38.774 46.175 38.479 46.77 38.25 C 47.36 38.018 47.974 37.851 48.6 37.75 L 48.86 37.75 C 48.95 37.74 49.04 37.74 49.13 37.75 L 49.39 37.75 L 49.66 37.75 C 50.853 37.712 52.041 37.92 53.15 38.36 C 54.263 38.795 55.281 39.44 56.15 40.26 M 58.35 43.26 C 58.947 44.431 59.34 45.696 59.51 47 C 59.56 47.42 59.66 48.27 59.74 49.45 C 59.82 50.63 59.85 52.13 59.74 53.83"
        fill="#00000000"
        stroke="#f2f2f2"
        stroke-width="1"
        stroke-linecap="round"
        stroke-linejoin="round"/>
    <path
        id="path_22"
        d="M 59.75 53.67 C 59.81 51.97 59.75 50.47 59.75 49.29 C 59.75 48.11 59.57 47.29 59.52 46.84 C 59.35 45.536 58.957 44.271 58.36 43.1 M 56.16 40.1 C 55.291 39.28 54.273 38.635 53.16 38.2 C 52.051 37.76 50.863 37.552 49.67 37.59 L 49.4 37.59 L 49.14 37.59 C 49.05 37.58 48.96 37.58 48.87 37.59 L 48.61 37.59 C 47.984 37.691 47.37 37.858 46.78 38.09 C 46.185 38.319 45.619 38.614 45.09 38.97 C 44.554 39.326 44.054 39.734 43.6 40.19 C 43.108 40.713 42.672 41.286 42.3 41.9 C 41.912 42.464 41.577 43.064 41.3 43.69 C 41.038 44.319 40.827 44.967 40.67 45.63 C 40.522 46.287 40.431 46.957 40.4 47.63 C 40.362 48.328 40.389 49.027 40.48 49.72 C 40.48 50.03 40.55 50.48 40.57 51.03 C 40.59 51.58 40.57 52.22 40.57 52.9 C 40.542 53.6 40.475 54.298 40.37 54.99 C 40.272 55.672 40.104 56.342 39.87 56.99 C 39.371 58.32 39.12 59.73 39.13 61.15 C 39.142 62.515 39.389 63.869 39.86 65.15 C 40.308 66.413 40.986 67.583 41.86 68.6 C 42.723 69.63 43.793 70.468 45 71.06 C 45.326 71.211 45.66 71.345 46 71.46 C 46.328 71.569 46.662 71.66 47 71.73 C 47.33 71.8 47.664 71.85 48 71.88 C 48.333 71.899 48.667 71.899 49 71.88 C 49.92 71.851 50.828 71.672 51.69 71.35 C 52.554 71.026 53.366 70.578 54.1 70.02 C 54.856 69.449 55.529 68.776 56.1 68.02 C 56.69 67.217 57.165 66.335 57.51 65.4 C 58.244 63.416 58.786 61.367 59.13 59.28 M 42.34 61.19 C 42.339 60.244 42.508 59.306 42.84 58.42 C 43.188 57.448 43.432 56.443 43.57 55.42 C 43.706 54.456 43.783 53.484 43.8 52.51 C 43.8 51.63 43.8 50.85 43.8 50.29 C 43.8 49.73 43.72 49.36 43.71 49.29 C 43.65 48.826 43.63 48.358 43.65 47.89 C 43.678 47.429 43.741 46.971 43.84 46.52 C 43.941 46.075 44.081 45.64 44.26 45.22 C 44.597 44.394 45.09 43.641 45.71 43 C 46.015 42.694 46.35 42.419 46.71 42.18 C 47.062 41.948 47.437 41.753 47.83 41.6 C 48.223 41.441 48.632 41.327 49.05 41.26 L 49.23 41.26 L 49.4 41.26 L 49.76 41.26 C 50.556 41.23 51.35 41.366 52.09 41.66 C 52.832 41.951 53.511 42.382 54.09 42.93 C 54.697 43.502 55.195 44.18 55.56 44.93 C 55.955 45.711 56.215 46.553 56.33 47.42 C 56.33 47.65 56.45 48.34 56.51 49.36 C 56.57 50.38 56.63 51.74 56.58 53.29 C 56.535 55.022 56.378 56.749 56.11 58.46 C 55.793 60.35 55.294 62.206 54.62 64 C 54.391 64.62 54.078 65.205 53.69 65.74 C 53.315 66.249 52.871 66.704 52.37 67.09 C 51.88 67.465 51.338 67.765 50.76 67.98 C 50.185 68.191 49.582 68.312 48.97 68.34 C 48.73 68.34 48.5 68.34 48.27 68.34 C 48.04 68.34 47.82 68.28 47.59 68.24 C 47.366 68.191 47.146 68.127 46.93 68.05 C 46.704 67.978 46.484 67.891 46.27 67.79 C 45.467 67.403 44.752 66.855 44.17 66.18"
        fill="#00000000"
        stroke="#f2f2f2"
        stroke-width="1"
        stroke-linecap="round"
        stroke-linejoin="round"/>
    <path
        id="path_23"
        d="M 44.17 66.17 C 44.752 66.845 45.467 67.393 46.27 67.78 C 46.484 67.881 46.704 67.968 46.93 68.04 C 47.146 68.117 47.366 68.181 47.59 68.23 C 47.82 68.23 48.05 68.31 48.27 68.33 C 48.49 68.35 48.73 68.33 48.97 68.33 C 49.58 68.312 50.184 68.2 50.76 68 C 51.338 67.785 51.88 67.485 52.37 67.11 C 52.871 66.724 53.315 66.269 53.69 65.76 C 54.08 65.219 54.393 64.627 54.62 64 C 55.292 62.176 55.785 60.29 56.09 58.37 C 56.358 56.659 56.515 54.932 56.56 53.2 C 56.56 51.65 56.56 50.29 56.49 49.27 C 56.42 48.25 56.34 47.56 56.31 47.33 C 56.195 46.463 55.935 45.621 55.54 44.84 C 55.175 44.09 54.677 43.412 54.07 42.84 C 53.491 42.292 52.812 41.861 52.07 41.57 C 51.33 41.276 50.536 41.14 49.74 41.17 L 49.4 41.17 L 49.23 41.17 L 49.05 41.17 C 48.632 41.237 48.223 41.351 47.83 41.51 C 47.437 41.663 47.062 41.858 46.71 42.09 C 46.35 42.329 46.015 42.604 45.71 42.91 C 45.074 43.55 44.568 44.308 44.22 45.14 C 44.041 45.56 43.901 45.995 43.8 46.44 C 43.701 46.891 43.638 47.349 43.61 47.81 C 43.59 48.278 43.61 48.746 43.67 49.21 C 43.67 49.21 43.67 49.62 43.76 50.21 C 43.85 50.8 43.82 51.55 43.76 52.43 C 43.743 53.404 43.666 54.376 43.53 55.34 C 43.392 56.363 43.148 57.368 42.8 58.34 C 42.468 59.226 42.299 60.164 42.3 61.11 M 47 52.53 C 47 51.46 47 50.53 46.94 49.89 C 46.88 49.25 46.85 48.89 46.85 48.83 C 46.784 48.36 46.805 47.882 46.91 47.42 C 47.007 46.98 47.187 46.563 47.44 46.19 C 47.679 45.832 47.985 45.523 48.34 45.28 C 48.698 45.04 49.104 44.879 49.53 44.81 C 49.954 44.74 50.388 44.768 50.8 44.89 C 51.205 45.01 51.58 45.215 51.9 45.49 C 52.237 45.768 52.519 46.107 52.73 46.49 C 52.958 46.901 53.104 47.353 53.16 47.82 C 53.16 47.9 53.24 48.45 53.3 49.32 C 53.36 50.19 53.41 51.41 53.38 52.81 C 53.35 54.38 53.216 55.947 52.98 57.5 C 52.719 59.235 52.287 60.94 51.69 62.59 C 51.569 62.908 51.404 63.208 51.2 63.48 C 50.841 63.993 50.331 64.382 49.74 64.59 C 49.457 64.69 49.16 64.748 48.86 64.76 L 48.52 64.76 C 48.407 64.77 48.293 64.77 48.18 64.76 L 47.84 64.67 L 47.51 64.54 C 47.126 64.34 46.785 64.065 46.51 63.73 C 46.217 63.395 45.99 63.009 45.84 62.59 C 45.68 62.158 45.598 61.701 45.6 61.24 C 45.591 60.769 45.673 60.3 45.84 59.86 C 46.284 58.644 46.596 57.383 46.77 56.1"
        fill="#00000000"
        stroke="#f2f2f2"
        stroke-width="1"
        stroke-linecap="round"
        stroke-linejoin="round"/>
    <path
        id="path_24"
        d="M 46.71 56.06 C 46.536 57.343 46.224 58.604 45.78 59.82 C 45.613 60.26 45.531 60.729 45.54 61.2 C 45.538 61.661 45.62 62.118 45.78 62.55 C 45.93 62.969 46.157 63.355 46.45 63.69 C 46.725 64.025 47.066 64.3 47.45 64.5 L 47.78 64.63 L 48.12 64.72 C 48.233 64.73 48.347 64.73 48.46 64.72 L 48.8 64.72 C 49.1 64.708 49.397 64.65 49.68 64.55 C 50.271 64.342 50.781 63.953 51.14 63.44 C 51.344 63.168 51.509 62.868 51.63 62.55 C 52.25 60.922 52.709 59.238 53 57.52 C 53.236 55.967 53.37 54.4 53.4 52.83 C 53.4 51.43 53.4 50.22 53.32 49.34 C 53.24 48.46 53.19 47.92 53.18 47.84 C 53.124 47.373 52.978 46.921 52.75 46.51 C 52.539 46.127 52.257 45.788 51.92 45.51 C 51.6 45.235 51.225 45.03 50.82 44.91 C 50.408 44.788 49.974 44.76 49.55 44.83 C 49.124 44.899 48.718 45.06 48.36 45.3 C 48.005 45.543 47.699 45.852 47.46 46.21 C 47.207 46.583 47.027 47 46.93 47.44 C 46.825 47.902 46.804 48.38 46.87 48.85 C 46.87 48.85 46.87 49.26 46.96 49.91 C 47.05 50.56 47.04 51.48 47.02 52.55 M 48.76 61.23 C 49.291 59.777 49.667 58.272 49.88 56.74 C 50.088 55.369 50.202 53.986 50.22 52.6 C 50.22 51.35 50.22 50.3 50.14 49.6 C 50.06 48.9 50 48.34 50 48.34 C 50 48.34 50.06 48.78 50.12 49.53 C 50.18 50.28 50.22 51.33 50.2 52.53 C 50.182 53.916 50.068 55.299 49.86 56.67 C 49.647 58.219 49.268 59.741 48.73 61.21 Z"
        fill="#00000000"
        stroke="#f2f2f2"
        stroke-width="1"
        stroke-linecap="round"
        stroke-linejoin="round"/>
    <path
        id="path_25"
        d="M 19.41 34.35 L 19.41 15.16 C 19.41 14.63 19.621 14.121 19.996 13.746 C 20.371 13.371 20.88 13.16 21.41 13.16 L 34.94 13.16"
        fill="#00000000"
        stroke="#e68a02"
        stroke-width="6"
        stroke-linecap="round"/>
    <path
        id="path_26"
        d="M 19.41 67 L 19.41 85.8 C 19.41 86.33 19.621 86.839 19.996 87.214 C 20.371 87.589 20.88 87.8 21.41 87.8 L 34.94 87.8"
        fill="#00000000"
        stroke="#e68a02"
        stroke-width="6"
        stroke-linecap="round"/>
    <path
        id="path_27"
        d="M 82 67 L 82 85.8 C 82 86.33 81.789 86.839 81.414 87.214 C 81.039 87.589 80.53 87.8 80 87.8 L 66 87.8"
        fill="#00000000"
        stroke="#e68a02"
        stroke-width="6"
        stroke-linecap="round"/>
    <path
        id="path_28"
        d="M 66 13.18 L 80 13.18 C 80.53 13.18 81.039 13.391 81.414 13.766 C 81.789 14.141 82 14.65 82 15.18 L 82 34.35"
        fill="#00000000"
        stroke="#e68a02"
        stroke-width="6"
        stroke-linecap="round"/>
    <path
        id="path_29"
        d="M 23.19 49.86 C 23.172 57.013 24.966 63.993 28.313 69.788 C 31.659 75.583 36.389 79.901 41.816 82.116 C 47.244 84.331 53.096 84.331 58.524 82.116 C 63.951 79.901 68.681 75.583 72.027 69.788 C 75.374 63.993 77.168 57.013 77.15 49.86 C 77.15 40.896 74.306 32.291 69.248 25.953 C 64.19 19.615 57.323 16.05 50.17 16.05 C 43.017 16.05 36.15 19.615 31.092 25.953 C 26.034 32.291 23.19 40.896 23.19 49.86 Z"
        fill="#0f1c4c"/>
    <path
        id="path_30"
        d="M 35 29.69 C 33.881 30.797 32.876 32.013 32 33.32 C 30.26 35.933 29.009 38.84 28.31 41.9 C 27.951 43.444 27.727 45.017 27.64 46.6 C 27.554 48.212 27.607 49.828 27.8 51.43 L 27.8 52 C 27.8 52.07 27.8 52.14 27.8 52.2 C 27.63 52.71 27.47 53.2 27.33 53.75 C 27.19 54.3 27.06 54.75 26.95 55.31 C 26.84 55.87 26.74 56.36 26.66 56.89 C 26.58 57.42 26.52 57.95 26.47 58.48"
        fill="#00000000"
        stroke="#f2f2f2"
        stroke-width="1"
        stroke-linecap="round"
        stroke-linejoin="round"/>
    <path
        id="path_31"
        d="M 69.41 36.11 C 68.11 33.538 66.371 31.213 64.27 29.24 C 62.253 27.337 59.895 25.83 57.32 24.8 C 54.727 23.768 51.949 23.285 49.16 23.38 L 48.54 23.38 L 47.92 23.43 L 47.31 23.5 C 47.105 23.52 46.902 23.55 46.7 23.59 C 45.235 23.817 43.799 24.206 42.42 24.75"
        fill="#00000000"
        stroke="#f2f2f2"
        stroke-width="1"
        stroke-linecap="round"
        stroke-linejoin="round"/>
    <path
        id="path_32"
        d="M 71.12 65.06 C 71.639 62.776 72.01 60.462 72.23 58.13 C 72.45 55.93 72.53 53.89 72.53 52.08 C 72.53 50.27 72.45 48.7 72.36 47.47 C 72.27 46.24 72.16 45.32 72.1 44.84"
        fill="#00000000"
        stroke="#f2f2f2"
        stroke-width="1"
        stroke-linecap="round"
        stroke-linejoin="round"/>
    <path
        id="path_33"
        d="M 72.1 44.84 C 72.16 45.32 72.27 46.23 72.36 47.47 C 72.45 48.71 72.53 50.27 72.53 52.08 C 72.53 53.89 72.45 55.93 72.23 58.13 C 72.01 60.462 71.639 62.776 71.12 65.06"
        fill="#00000000"
        stroke="#f2f2f2"
        stroke-width="1"
        stroke-linecap="round"
        stroke-linejoin="round"/>
    <path
        id="path_34"
        d="M 42.42 24.78 C 43.799 24.236 45.235 23.847 46.7 23.62 C 46.902 23.58 47.105 23.55 47.31 23.53 L 47.92 23.46 L 48.54 23.41 L 49.16 23.41 C 51.949 23.315 54.727 23.798 57.32 24.83 C 59.895 25.86 62.253 27.367 64.27 29.27 C 66.371 31.243 68.11 33.568 69.41 36.14"
        fill="#00000000"
        stroke="#f2f2f2"
        stroke-width="1"
        stroke-linecap="round"
        stroke-linejoin="round"/>
    <path
        id="path_35"
        d="M 26.5 58.46 C 26.55 57.93 26.61 57.4 26.69 56.87 C 26.77 56.34 26.87 55.81 26.98 55.29 C 27.09 54.77 27.21 54.29 27.36 53.73 C 27.51 53.17 27.66 52.73 27.83 52.18 C 27.83 52.12 27.83 52.05 27.83 51.98 L 27.83 51.43 C 27.637 49.828 27.584 48.212 27.67 46.6 C 27.757 45.017 27.981 43.444 28.34 41.9 C 29.03 38.842 30.27 35.935 32 33.32 C 32.876 32.013 33.881 30.797 35 29.69"
        fill="#00000000"
        stroke="#f2f2f2"
        stroke-width="1"
        stroke-linecap="round"
        stroke-linejoin="round"/>
    <path
        id="path_36"
        d="M 56.27 28.16 C 58.496 29.034 60.533 30.327 62.27 31.97 C 64.073 33.658 65.563 35.652 66.67 37.86 C 67.857 40.205 68.638 42.734 68.98 45.34 C 69.05 45.88 69.18 46.99 69.28 48.52 C 69.38 50.05 69.42 52 69.34 54.23 C 69.254 56.684 69.003 59.13 68.59 61.55 C 68.126 64.277 67.409 66.955 66.45 69.55 L 66.33 69.87 C 66.33 69.97 66.24 70.08 66.2 70.19 L 66.07 70.5 C 66.07 70.6 65.98 70.71 65.93 70.81"
        fill="#00000000"
        stroke="#f2f2f2"
        stroke-width="1"
        stroke-linecap="round"
        stroke-linejoin="round"/>
    <path
        id="path_37"
        d="M 31.43 42.85 C 31.733 41.532 32.151 40.244 32.68 39 C 33.216 37.761 33.862 36.573 34.61 35.45 C 35.352 34.335 36.199 33.293 37.14 32.34 C 38.057 31.424 39.062 30.6 40.14 29.88 C 41.2 29.181 42.329 28.595 43.51 28.13 C 44.694 27.665 45.924 27.33 47.18 27.13 L 47.7 27.05 L 48.23 26.99 L 48.76 26.99 L 49.29 26.99"
        fill="#00000000"
        stroke="#f2f2f2"
        stroke-width="1"
        stroke-linecap="round"
        stroke-linejoin="round"/>
    <path
        id="path_38"
        d="M 29.91 65.07 C 29.741 64.078 29.634 63.076 29.59 62.07 C 29.501 60.056 29.675 58.039 30.11 56.07 C 30.337 55.044 30.635 54.035 31 53.05 C 31 52.94 31 52.8 31 52.64 C 31 52.48 31 52.29 31 52.1 C 31.01 51.913 31.01 51.727 31 51.54 C 31 51.36 31 51.19 31 51.05 C 30.829 49.674 30.782 48.285 30.86 46.9"
        fill="#00000000"
        stroke="#f2f2f2"
        stroke-width="1"
        stroke-linecap="round"
        stroke-linejoin="round"/>
    <path
        id="path_39"
        d="M 56.27 28.16 C 58.496 29.034 60.533 30.327 62.27 31.97 C 64.073 33.658 65.563 35.652 66.67 37.86 C 67.857 40.205 68.638 42.734 68.98 45.34 C 69.05 45.88 69.18 46.99 69.28 48.52 C 69.38 50.05 69.42 52 69.34 54.23 C 69.254 56.684 69.003 59.13 68.59 61.55 C 68.126 64.277 67.409 66.955 66.45 69.55 L 66.33 69.87 C 66.33 69.97 66.24 70.08 66.2 70.19 L 66.07 70.5 C 66.07 70.6 65.98 70.71 65.93 70.81"
        fill="#00000000"
        stroke="#f2f2f2"
        stroke-width="1"
        stroke-linecap="round"
        stroke-linejoin="round"/>
    <path
        id="path_40"
        d="M 31.43 42.85 C 31.733 41.532 32.151 40.244 32.68 39 C 33.216 37.761 33.862 36.573 34.61 35.45 C 35.352 34.335 36.199 33.293 37.14 32.34 C 38.057 31.424 39.062 30.6 40.14 29.88 C 41.2 29.181 42.329 28.595 43.51 28.13 C 44.694 27.665 45.924 27.33 47.18 27.13 L 47.7 27.05 L 48.23 26.99 L 48.76 26.99 L 49.29 26.99"
        fill="#00000000"
        stroke="#f2f2f2"
        stroke-width="1"
        stroke-linecap="round"
        stroke-linejoin="round"/>
    <path
        id="path_41"
        d="M 29.91 65.07 C 29.741 64.078 29.634 63.076 29.59 62.07 C 29.501 60.056 29.675 58.039 30.11 56.07 C 30.337 55.044 30.635 54.035 31 53.05 C 31 52.94 31 52.8 31 52.64 C 31 52.48 31 52.29 31 52.1 C 31.01 51.913 31.01 51.727 31 51.54 C 31 51.36 31 51.19 31 51.05 C 30.829 49.674 30.782 48.285 30.86 46.9"
        fill="#00000000"
        stroke="#f2f2f2"
        stroke-width="1"
        stroke-linecap="round"
        stroke-linejoin="round"/>
    <path
        id="path_42"
        d="M 63.86 39.61 C 64.848 41.564 65.5 43.67 65.79 45.84 C 65.85 46.34 65.97 47.37 66.06 48.78 C 66.15 50.19 66.19 51.99 66.12 54.04 C 66.041 56.303 65.811 58.558 65.43 60.79 C 64.999 63.318 64.33 65.799 63.43 68.2 C 63.187 68.856 62.906 69.497 62.59 70.12 C 62.29 70.725 61.956 71.313 61.59 71.88 C 61.221 72.436 60.82 72.97 60.39 73.48 C 59.955 73.984 59.491 74.461 59 74.91"
        fill="#00000000"
        stroke="#f2f2f2"
        stroke-width="1"
        stroke-linecap="round"
        stroke-linejoin="round"/>
    <path
        id="path_43"
        d="M 44.58 31.51 C 45.567 31.123 46.593 30.845 47.64 30.68 L 48.08 30.62 L 48.52 30.57 L 48.96 30.57 L 49.4 30.57 C 51.388 30.498 53.37 30.838 55.22 31.57 C 57.073 32.299 58.77 33.375 60.22 34.74"
        fill="#00000000"
        stroke="#f2f2f2"
        stroke-width="1"
        stroke-linecap="round"
        stroke-linejoin="round"/>
    <path
        id="path_44"
        d="M 35.5 71.09 C 35.35 70.84 35.21 70.58 35.07 70.33 C 34.93 70.08 34.8 69.8 34.67 69.53 C 34.54 69.26 34.42 68.99 34.3 68.72 L 34 67.88 C 33.599 66.779 33.294 65.644 33.09 64.49 C 32.683 62.208 32.683 59.872 33.09 57.59 C 33.293 56.445 33.598 55.321 34 54.23 C 34.067 54.022 34.111 53.808 34.13 53.59 C 34.13 53.31 34.2 52.99 34.22 52.59 C 34.24 52.19 34.22 51.88 34.22 51.59 C 34.22 51.3 34.22 50.91 34.22 50.59 C 33.93 48.301 34.045 45.979 34.56 43.73 C 34.792 42.631 35.127 41.556 35.56 40.52 C 35.995 39.471 36.531 38.466 37.16 37.52 C 37.785 36.615 38.495 35.771 39.28 35 C 40.045 34.252 40.882 33.582 41.78 33"
        fill="#00000000"
        stroke="#f2f2f2"
        stroke-width="1"
        stroke-linecap="round"
        stroke-linejoin="round"/>
    <path
        id="path_45"
        d="M 58.64 70.29 C 57.894 71.315 57.005 72.228 56 73 C 55.026 73.752 53.944 74.352 52.79 74.78 C 51.636 75.207 50.42 75.447 49.19 75.49 C 48.73 75.515 48.27 75.515 47.81 75.49 C 47.353 75.449 46.899 75.382 46.45 75.29 C 45.997 75.191 45.55 75.068 45.11 74.92 C 44.663 74.771 44.225 74.594 43.8 74.39 C 42.198 73.622 40.772 72.533 39.61 71.19 C 38.442 69.83 37.528 68.272 36.91 66.59 C 36.269 64.871 35.931 63.054 35.91 61.22 C 35.901 59.328 36.24 57.45 36.91 55.68 C 37.059 55.259 37.163 54.823 37.22 54.38 C 37.296 53.876 37.346 53.369 37.37 52.86 C 37.37 52.35 37.37 51.86 37.37 51.4 C 37.37 50.94 37.37 50.55 37.31 50.25 M 54.18 34.89 C 55.662 35.472 57.019 36.33 58.18 37.42 C 59.377 38.553 60.371 39.882 61.12 41.35 C 61.909 42.919 62.43 44.609 62.66 46.35 C 62.72 46.81 62.83 47.75 62.91 49.04 C 62.99 50.33 63.03 51.99 62.97 53.87 C 62.885 55.926 62.665 57.973 62.31 60 C 61.932 62.306 61.332 64.569 60.52 66.76 M 37.61 44.71 C 37.808 43.825 38.089 42.962 38.45 42.13 C 38.803 41.299 39.231 40.503 39.73 39.75 C 40.228 39.006 40.798 38.313 41.43 37.68 C 42.038 37.065 42.708 36.515 43.43 36.04 C 44.841 35.095 46.442 34.47 48.12 34.21 L 48.47 34.16 L 48.82 34.16 L 49.18 34.16 L 49.53 34.16 M 63.87 39.69 C 64.858 41.644 65.51 43.75 65.8 45.92 C 65.86 46.42 65.98 47.45 66.07 48.86 C 66.16 50.27 66.2 52.07 66.13 54.12 C 66.051 56.383 65.821 58.638 65.44 60.87 C 65.009 63.398 64.34 65.879 63.44 68.28 C 63.197 68.936 62.916 69.577 62.6 70.2 C 62.3 70.805 61.966 71.393 61.6 71.96 C 61.231 72.516 60.83 73.05 60.4 73.56 C 59.96 74.037 59.492 74.487 59 74.91 M 44.58 31.51 C 45.567 31.123 46.593 30.845 47.64 30.68 L 48.08 30.62 L 48.52 30.57 L 48.96 30.57 L 49.4 30.57 C 51.388 30.498 53.37 30.838 55.22 31.57 C 57.073 32.299 58.77 33.375 60.22 34.74 M 35.5 71.09 C 35.35 70.84 35.21 70.58 35.07 70.33 C 34.93 70.08 34.8 69.8 34.67 69.53 C 34.54 69.26 34.42 68.99 34.3 68.72 L 34 67.88 C 33.599 66.779 33.294 65.644 33.09 64.49 C 32.683 62.208 32.683 59.872 33.09 57.59 C 33.293 56.445 33.598 55.321 34 54.23 C 34.067 54.022 34.111 53.808 34.13 53.59 C 34.13 53.31 34.2 52.99 34.22 52.59 C 34.24 52.19 34.22 51.88 34.22 51.59 C 34.22 51.3 34.22 50.91 34.22 50.59 C 33.93 48.301 34.045 45.979 34.56 43.73 C 34.792 42.631 35.127 41.556 35.56 40.52 C 35.995 39.471 36.531 38.466 37.16 37.52 C 37.785 36.615 38.495 35.771 39.28 35 C 40.045 34.252 40.882 33.582 41.78 33"
        fill="#00000000"
        stroke="#f2f2f2"
        stroke-width="1"
        stroke-linecap="round"
        stroke-linejoin="round"/>
    <path
        id="path_46"
        d="M 49.52 34.08 L 49.17 34.08 L 48.81 34.08 L 48.46 34.08 L 48.11 34.13 C 46.429 34.402 44.827 35.041 43.42 36 C 42.698 36.475 42.028 37.025 41.42 37.64 C 40.788 38.273 40.218 38.966 39.72 39.71 C 39.221 40.463 38.793 41.259 38.44 42.09 C 38.079 42.922 37.798 43.785 37.6 44.67 M 60.52 66.8 C 61.335 64.596 61.934 62.319 62.31 60 C 62.657 57.956 62.867 55.892 62.94 53.82 C 63 52 63 50.33 62.88 49 C 62.76 47.67 62.69 46.77 62.63 46.31 C 62.4 44.569 61.879 42.879 61.09 41.31 C 60.341 39.842 59.347 38.513 58.15 37.38 C 56.989 36.29 55.632 35.432 54.15 34.85 M 37.35 50.2 C 37.35 50.5 37.35 50.9 37.41 51.35 C 37.47 51.8 37.41 52.3 37.41 52.81 C 37.386 53.319 37.336 53.826 37.26 54.33 C 37.203 54.773 37.099 55.209 36.95 55.63 C 36.28 57.4 35.941 59.278 35.95 61.17 C 35.971 63.004 36.309 64.821 36.95 66.54 C 37.568 68.222 38.482 69.78 39.65 71.14 C 40.812 72.483 42.238 73.572 43.84 74.34 C 44.265 74.544 44.703 74.721 45.15 74.87 C 45.59 75.018 46.037 75.141 46.49 75.24 C 46.939 75.332 47.393 75.399 47.85 75.44 C 48.31 75.465 48.77 75.465 49.23 75.44 C 50.46 75.397 51.676 75.157 52.83 74.73 C 53.967 74.314 55.035 73.731 56 73 C 57.001 72.23 57.887 71.321 58.63 70.3 M 59.18 59.3 C 58.836 61.387 58.294 63.436 57.56 65.42 C 57.215 66.341 56.744 67.209 56.16 68 C 55.589 68.756 54.916 69.429 54.16 70 C 53.426 70.558 52.614 71.006 51.75 71.33 C 50.888 71.652 49.98 71.831 49.06 71.86 C 48.727 71.879 48.393 71.879 48.06 71.86 C 47.724 71.83 47.39 71.78 47.06 71.71 C 46.722 71.64 46.388 71.549 46.06 71.44 C 45.72 71.325 45.386 71.191 45.06 71.04 C 43.859 70.466 42.789 69.648 41.92 68.64 C 41.046 67.623 40.368 66.453 39.92 65.19 C 39.449 63.909 39.202 62.555 39.19 61.19 C 39.163 59.762 39.401 58.342 39.89 57 C 40.124 56.352 40.292 55.682 40.39 55 C 40.495 54.308 40.562 53.61 40.59 52.91 C 40.59 52.23 40.59 51.59 40.59 51.04 C 40.59 50.49 40.53 50.04 40.5 49.73 C 40.409 49.037 40.382 48.338 40.42 47.64 C 40.451 46.967 40.542 46.297 40.69 45.64 C 40.847 44.977 41.058 44.329 41.32 43.7 C 41.597 43.074 41.932 42.474 42.32 41.91 C 42.691 41.349 43.116 40.827 43.59 40.35 C 44.044 39.894 44.544 39.486 45.08 39.13 C 45.609 38.774 46.175 38.479 46.77 38.25 C 47.36 38.018 47.974 37.851 48.6 37.75 L 48.86 37.75 C 48.95 37.74 49.04 37.74 49.13 37.75 L 49.39 37.75 L 49.66 37.75 C 50.853 37.712 52.041 37.92 53.15 38.36 C 54.263 38.795 55.281 39.44 56.15 40.26 M 58.35 43.26 C 58.947 44.431 59.34 45.696 59.51 47 C 59.56 47.42 59.66 48.27 59.74 49.45 C 59.82 50.63 59.85 52.13 59.74 53.83"
        fill="#00000000"
        stroke="#f2f2f2"
        stroke-width="1"
        stroke-linecap="round"
        stroke-linejoin="round"/>
    <path
        id="path_47"
        d="M 59.75 53.67 C 59.81 51.97 59.75 50.47 59.75 49.29 C 59.75 48.11 59.57 47.29 59.52 46.84 C 59.35 45.536 58.957 44.271 58.36 43.1 M 56.16 40.1 C 55.291 39.28 54.273 38.635 53.16 38.2 C 52.051 37.76 50.863 37.552 49.67 37.59 L 49.4 37.59 L 49.14 37.59 C 49.05 37.58 48.96 37.58 48.87 37.59 L 48.61 37.59 C 47.984 37.691 47.37 37.858 46.78 38.09 C 46.185 38.319 45.619 38.614 45.09 38.97 C 44.554 39.326 44.054 39.734 43.6 40.19 C 43.108 40.713 42.672 41.286 42.3 41.9 C 41.912 42.464 41.577 43.064 41.3 43.69 C 41.038 44.319 40.827 44.967 40.67 45.63 C 40.522 46.287 40.431 46.957 40.4 47.63 C 40.362 48.328 40.389 49.027 40.48 49.72 C 40.48 50.03 40.55 50.48 40.57 51.03 C 40.59 51.58 40.57 52.22 40.57 52.9 C 40.542 53.6 40.475 54.298 40.37 54.99 C 40.272 55.672 40.104 56.342 39.87 56.99 C 39.371 58.32 39.12 59.73 39.13 61.15 C 39.142 62.515 39.389 63.869 39.86 65.15 C 40.308 66.413 40.986 67.583 41.86 68.6 C 42.723 69.63 43.793 70.468 45 71.06 C 45.326 71.211 45.66 71.345 46 71.46 C 46.328 71.569 46.662 71.66 47 71.73 C 47.33 71.8 47.664 71.85 48 71.88 C 48.333 71.899 48.667 71.899 49 71.88 C 49.92 71.851 50.828 71.672 51.69 71.35 C 52.554 71.026 53.366 70.578 54.1 70.02 C 54.856 69.449 55.529 68.776 56.1 68.02 C 56.69 67.217 57.165 66.335 57.51 65.4 C 58.244 63.416 58.786 61.367 59.13 59.28 M 42.34 61.19 C 42.339 60.244 42.508 59.306 42.84 58.42 C 43.188 57.448 43.432 56.443 43.57 55.42 C 43.706 54.456 43.783 53.484 43.8 52.51 C 43.8 51.63 43.8 50.85 43.8 50.29 C 43.8 49.73 43.72 49.36 43.71 49.29 C 43.65 48.826 43.63 48.358 43.65 47.89 C 43.678 47.429 43.741 46.971 43.84 46.52 C 43.941 46.075 44.081 45.64 44.26 45.22 C 44.597 44.394 45.09 43.641 45.71 43 C 46.015 42.694 46.35 42.419 46.71 42.18 C 47.062 41.948 47.437 41.753 47.83 41.6 C 48.223 41.441 48.632 41.327 49.05 41.26 L 49.23 41.26 L 49.4 41.26 L 49.76 41.26 C 50.556 41.23 51.35 41.366 52.09 41.66 C 52.832 41.951 53.511 42.382 54.09 42.93 C 54.697 43.502 55.195 44.18 55.56 44.93 C 55.955 45.711 56.215 46.553 56.33 47.42 C 56.33 47.65 56.45 48.34 56.51 49.36 C 56.57 50.38 56.63 51.74 56.58 53.29 C 56.535 55.022 56.378 56.749 56.11 58.46 C 55.793 60.35 55.294 62.206 54.62 64 C 54.391 64.62 54.078 65.205 53.69 65.74 C 53.315 66.249 52.871 66.704 52.37 67.09 C 51.88 67.465 51.338 67.765 50.76 67.98 C 50.185 68.191 49.582 68.312 48.97 68.34 C 48.73 68.34 48.5 68.34 48.27 68.34 C 48.04 68.34 47.82 68.28 47.59 68.24 C 47.366 68.191 47.146 68.127 46.93 68.05 C 46.704 67.978 46.484 67.891 46.27 67.79 C 45.467 67.403 44.752 66.855 44.17 66.18"
        fill="#00000000"
        stroke="#f2f2f2"
        stroke-width="1"
        stroke-linecap="round"
        stroke-linejoin="round"/>
    <path
        id="path_48"
        d="M 44.17 66.17 C 44.752 66.845 45.467 67.393 46.27 67.78 C 46.484 67.881 46.704 67.968 46.93 68.04 C 47.146 68.117 47.366 68.181 47.59 68.23 C 47.82 68.23 48.05 68.31 48.27 68.33 C 48.49 68.35 48.73 68.33 48.97 68.33 C 49.58 68.312 50.184 68.2 50.76 68 C 51.338 67.785 51.88 67.485 52.37 67.11 C 52.871 66.724 53.315 66.269 53.69 65.76 C 54.08 65.219 54.393 64.627 54.62 64 C 55.292 62.176 55.785 60.29 56.09 58.37 C 56.358 56.659 56.515 54.932 56.56 53.2 C 56.56 51.65 56.56 50.29 56.49 49.27 C 56.42 48.25 56.34 47.56 56.31 47.33 C 56.195 46.463 55.935 45.621 55.54 44.84 C 55.175 44.09 54.677 43.412 54.07 42.84 C 53.491 42.292 52.812 41.861 52.07 41.57 C 51.33 41.276 50.536 41.14 49.74 41.17 L 49.4 41.17 L 49.23 41.17 L 49.05 41.17 C 48.632 41.237 48.223 41.351 47.83 41.51 C 47.437 41.663 47.062 41.858 46.71 42.09 C 46.35 42.329 46.015 42.604 45.71 42.91 C 45.074 43.55 44.568 44.308 44.22 45.14 C 44.041 45.56 43.901 45.995 43.8 46.44 C 43.701 46.891 43.638 47.349 43.61 47.81 C 43.59 48.278 43.61 48.746 43.67 49.21 C 43.67 49.21 43.67 49.62 43.76 50.21 C 43.85 50.8 43.82 51.55 43.76 52.43 C 43.743 53.404 43.666 54.376 43.53 55.34 C 43.392 56.363 43.148 57.368 42.8 58.34 C 42.468 59.226 42.299 60.164 42.3 61.11 M 47 52.53 C 47 51.46 47 50.53 46.94 49.89 C 46.88 49.25 46.85 48.89 46.85 48.83 C 46.784 48.36 46.805 47.882 46.91 47.42 C 47.007 46.98 47.187 46.563 47.44 46.19 C 47.679 45.832 47.985 45.523 48.34 45.28 C 48.698 45.04 49.104 44.879 49.53 44.81 C 49.954 44.74 50.388 44.768 50.8 44.89 C 51.205 45.01 51.58 45.215 51.9 45.49 C 52.237 45.768 52.519 46.107 52.73 46.49 C 52.958 46.901 53.104 47.353 53.16 47.82 C 53.16 47.9 53.24 48.45 53.3 49.32 C 53.36 50.19 53.41 51.41 53.38 52.81 C 53.35 54.38 53.216 55.947 52.98 57.5 C 52.719 59.235 52.287 60.94 51.69 62.59 C 51.569 62.908 51.404 63.208 51.2 63.48 C 50.841 63.993 50.331 64.382 49.74 64.59 C 49.457 64.69 49.16 64.748 48.86 64.76 L 48.52 64.76 C 48.407 64.77 48.293 64.77 48.18 64.76 L 47.84 64.67 L 47.51 64.54 C 47.126 64.34 46.785 64.065 46.51 63.73 C 46.217 63.395 45.99 63.009 45.84 62.59 C 45.68 62.158 45.598 61.701 45.6 61.24 C 45.591 60.769 45.673 60.3 45.84 59.86 C 46.284 58.644 46.596 57.383 46.77 56.1"
        fill="#00000000"
        stroke="#f2f2f2"
        stroke-width="1"
        stroke-linecap="round"
        stroke-linejoin="round"/>
    <path
        id="path_49"
        d="M 46.71 56.06 C 46.536 57.343 46.224 58.604 45.78 59.82 C 45.613 60.26 45.531 60.729 45.54 61.2 C 45.538 61.661 45.62 62.118 45.78 62.55 C 45.93 62.969 46.157 63.355 46.45 63.69 C 46.725 64.025 47.066 64.3 47.45 64.5 L 47.78 64.63 L 48.12 64.72 C 48.233 64.73 48.347 64.73 48.46 64.72 L 48.8 64.72 C 49.1 64.708 49.397 64.65 49.68 64.55 C 50.271 64.342 50.781 63.953 51.14 63.44 C 51.344 63.168 51.509 62.868 51.63 62.55 C 52.25 60.922 52.709 59.238 53 57.52 C 53.236 55.967 53.37 54.4 53.4 52.83 C 53.4 51.43 53.4 50.22 53.32 49.34 C 53.24 48.46 53.19 47.92 53.18 47.84 C 53.124 47.373 52.978 46.921 52.75 46.51 C 52.539 46.127 52.257 45.788 51.92 45.51 C 51.6 45.235 51.225 45.03 50.82 44.91 C 50.408 44.788 49.974 44.76 49.55 44.83 C 49.124 44.899 48.718 45.06 48.36 45.3 C 48.005 45.543 47.699 45.852 47.46 46.21 C 47.207 46.583 47.027 47 46.93 47.44 C 46.825 47.902 46.804 48.38 46.87 48.85 C 46.87 48.85 46.87 49.26 46.96 49.91 C 47.05 50.56 47.04 51.48 47.02 52.55 M 48.76 61.23 C 49.291 59.777 49.667 58.272 49.88 56.74 C 50.088 55.369 50.202 53.986 50.22 52.6 C 50.22 51.35 50.22 50.3 50.14 49.6 C 50.06 48.9 50 48.34 50 48.34 C 50 48.34 50.06 48.78 50.12 49.53 C 50.18 50.28 50.22 51.33 50.2 52.53 C 50.182 53.916 50.068 55.299 49.86 56.67 C 49.647 58.219 49.268 59.741 48.73 61.21 Z"
        fill="#00000000"
        stroke="#f2f2f2"
        stroke-width="1"
        stroke-linecap="round"
        stroke-linejoin="round"/>
</svg>
