<svg
    xmlns="http://www.w3.org/2000/svg"
    viewBox="0 0 100 100"
    id="vector">


    <path
        id="path"
        d="M 76.83 59.66 C 73.542 63.875 69.269 67.22 64.388 69.399 C 59.506 71.578 54.163 72.526 48.83 72.16 C 40.457 71.657 32.609 67.881 26.991 61.653 C 21.372 55.424 18.421 47.23 18.78 38.85 L 50.28 50.14 Z"
        fill="#0f1c4c"/>
    <path
        id="path_1"
        d="M 25.37 48.13 C 25.37 48.13 25.37 54.66 29.1 57.63 C 29.1 57.63 26.77 48.13 27.7 46.95 C 28.63 45.77 25.37 48.13 25.37 48.13 Z"
        fill="#e6e8e8"/>
    <path
        id="path_2"
        d="M 52.42 74.51 L 52.42 87.76 L 25 87.76 L 25 87.34 L 25.22 87.43 C 28.405 82.555 30.546 77.073 31.51 71.33 C 35.695 74.03 40.591 75.423 45.57 75.33 C 47.879 75.349 50.181 75.074 52.42 74.51 Z"
        fill="#0f1c4c"/>
    <path
        id="path_3"
        d="M 35 55.89 L 35.59 56.16 L 34.82 56.16 C 34.884 56.073 34.945 55.983 35 55.89 Z"
        fill="#1e1e1e"/>
    <path
        id="path_4"
        d="M 50.58 46.62 L 47.58 52.49"
        fill="#1e1e1e"
        stroke="#1e1e1e"
        stroke-width="4"
        stroke-linecap="round"/>
    <path
        id="path_5"
        d="M 48.61 41.11 C 48.61 42.075 49.012 43.001 49.726 43.684 C 50.44 44.366 51.41 44.75 52.42 44.75 C 53.43 44.75 54.4 44.366 55.114 43.684 C 55.828 43.001 56.23 42.075 56.23 41.11 C 56.23 40.145 55.828 39.219 55.114 38.536 C 54.4 37.854 53.43 37.47 52.42 37.47 C 51.41 37.47 50.44 37.854 49.726 38.536 C 49.012 39.219 48.61 40.145 48.61 41.11 Z"
        fill="#1e1e1e"/>
    <path
        id="path_6"
        d="M 47.07 11.79 C 62.44 8 78.15 16.9 82.1 31.6"
        fill="#00000000"
        stroke="#f7931e"
        stroke-width="4"
        stroke-linecap="round"/>
    <path
        id="path_7"
        d="M 50.11 23.57 C 59.23 21.21 68.65 26.38 71.11 35.1"
        fill="#00000000"
        stroke="#f7931e"
        stroke-width="4"
        stroke-linecap="round"/>
    <path
        id="path_8"
        d="M 49.05 32.09 C 51.844 31.362 54.815 31.751 57.328 33.172 C 59.841 34.594 61.704 36.94 62.52 39.71"
        fill="#00000000"
        stroke="#f7931e"
        stroke-width="4"
        stroke-linecap="round"/>
    <path
        id="path_9"
        d="M 53.1 44.69 L 50.28 50.15 L 45.61 48.47 L 48.84 42.34"
        fill="#1e1e1e"/>
</svg>
