<svg
    xmlns="http://www.w3.org/2000/svg"
    viewBox="0 0 100 100"
    id="vector">
    <path
        id="path"
        d="M 72 39.7 C 72.157 42.749 71.696 45.799 70.645 48.665 C 69.593 51.532 67.972 54.156 65.88 56.38 C 62.3 60.23 58 65.24 58 70.52 L 58 71.08 L 39.43 71.08 L 39.43 69.08 C 39.43 64.14 35.28 59.3 32.09 55.54 C 28.31 51.118 26.371 45.408 26.678 39.599 C 26.985 33.789 29.515 28.315 33.74 24.316 C 37.965 20.317 43.57 18.093 49.387 18.106 C 55.205 18.119 60.8 20.368 65.007 24.386 C 69.214 28.404 71.719 33.889 72 39.7 Z"
        fill="#0f1c4c"/>
    <path
        id="path_1"
        d="M 39.29 72.75 L 59.46 72.75 C 59.794 72.75 60.115 72.883 60.351 73.119 C 60.587 73.355 60.72 73.676 60.72 74.01 L 60.72 75.36 C 60.72 75.694 60.587 76.015 60.351 76.251 C 60.115 76.487 59.794 76.62 59.46 76.62 L 39.29 76.62 C 38.956 76.62 38.635 76.487 38.399 76.251 C 38.163 76.015 38.03 75.694 38.03 75.36 L 38.03 74.01 C 38.03 73.676 38.163 73.355 38.399 73.119 C 38.635 72.883 38.956 72.75 39.29 72.75 Z"
        fill="#f7931e"/>
    <path
        id="path_2"
        d="M 42.49 78.05 L 56.42 78.05 C 56.754 78.05 57.075 78.183 57.311 78.419 C 57.547 78.655 57.68 78.976 57.68 79.31 L 57.68 80.66 C 57.68 80.994 57.547 81.315 57.311 81.551 C 57.075 81.787 56.754 81.92 56.42 81.92 L 42.49 81.92 C 42.156 81.92 41.835 81.787 41.599 81.551 C 41.363 81.315 41.23 80.994 41.23 80.66 L 41.23 79.31 C 41.23 78.976 41.363 78.655 41.599 78.419 C 41.835 78.183 42.156 78.05 42.49 78.05 Z"
        fill="#f7931e"/>
    <path
        id="path_3"
        d="M 54.91 83.46 C 54.961 84.661 54.62 85.846 53.939 86.836 C 53.257 87.826 52.272 88.568 51.132 88.949 C 49.992 89.331 48.758 89.331 47.618 88.949 C 46.478 88.568 45.493 87.826 44.811 86.836 C 44.13 85.846 43.789 84.661 43.84 83.46"
        fill="#f7931e"/>
    <path
        id="path_4"
        d="M 31.14 21.16 C 30.929 21.163 30.719 21.124 30.523 21.045 C 30.328 20.966 30.15 20.849 30 20.7 L 24.57 15.27 C 24.281 14.978 24.12 14.583 24.121 14.172 C 24.123 13.762 24.287 13.368 24.578 13.078 C 24.869 12.789 25.264 12.626 25.675 12.626 C 26.085 12.627 26.479 12.79 26.77 13.08 L 32.2 18.51 C 32.488 18.802 32.649 19.195 32.649 19.605 C 32.649 20.015 32.488 20.408 32.2 20.7 C 31.918 20.982 31.539 21.146 31.14 21.16 Z"
        fill="#f7931e"/>
    <path
        id="path_5"
        d="M 14.52 38 C 14.114 37.968 13.734 37.784 13.458 37.485 C 13.181 37.185 13.027 36.793 13.027 36.385 C 13.027 35.977 13.181 35.585 13.458 35.285 C 13.734 34.986 14.114 34.802 14.52 34.77 L 22 34.57 C 22.343 34.559 22.68 34.658 22.963 34.851 C 23.247 35.044 23.461 35.323 23.577 35.645 C 23.692 35.968 23.702 36.32 23.604 36.649 C 23.507 36.978 23.308 37.267 23.036 37.476 C 22.764 37.685 22.433 37.802 22.09 37.81 L 14.59 38.01 Z"
        fill="#f7931e"/>
    <path
        id="path_6"
        d="M 22.82 59 C 22.72 59.001 22.62 58.982 22.528 58.945 C 22.435 58.907 22.351 58.851 22.28 58.78 C 22.141 58.636 22.064 58.445 22.064 58.245 C 22.064 58.045 22.141 57.854 22.28 57.71 L 25.5 54.5 C 25.613 54.388 25.759 54.314 25.916 54.289 C 26.073 54.265 26.235 54.291 26.376 54.364 C 26.518 54.437 26.633 54.553 26.705 54.695 C 26.776 54.837 26.801 54.999 26.775 55.156 C 26.749 55.313 26.674 55.458 26.56 55.57 L 23.35 58.78 C 23.281 58.85 23.198 58.906 23.107 58.943 C 23.016 58.981 22.919 59 22.82 59 Z"
        fill="#f7931e"/>
    <path
        id="path_7"
        d="M 50 14.68 C 49.765 14.675 49.535 14.608 49.334 14.486 C 49.133 14.363 48.967 14.19 48.854 13.984 C 48.741 13.778 48.685 13.545 48.69 13.31 L 48.69 5.1 C 48.69 4.753 48.828 4.419 49.074 4.174 C 49.319 3.928 49.653 3.79 50 3.79 C 50.347 3.79 50.681 3.928 50.926 4.174 C 51.172 4.419 51.31 4.753 51.31 5.1 L 51.31 13.31 C 51.315 13.665 51.181 14.007 50.936 14.264 C 50.691 14.52 50.354 14.67 50 14.68 Z"
        fill="#f7931e"/>
    <path
        id="path_8"
        d="M 66.86 22.94 C 66.486 22.937 66.128 22.79 65.86 22.53 C 65.679 22.358 65.548 22.139 65.481 21.898 C 65.414 21.657 65.414 21.403 65.481 21.162 C 65.548 20.921 65.679 20.702 65.86 20.53 L 71.96 14.53 C 72.231 14.276 72.589 14.134 72.96 14.134 C 73.331 14.134 73.689 14.276 73.96 14.53 C 74.138 14.704 74.266 14.923 74.331 15.163 C 74.397 15.403 74.397 15.657 74.331 15.897 C 74.266 16.137 74.138 16.356 73.96 16.53 L 67.86 22.53 C 67.591 22.789 67.233 22.935 66.86 22.94 Z"
        fill="#f7931e"/>
    <path
        id="path_9"
        d="M 82.38 38.43 L 82.38 38.43 L 75.75 38.23 C 75.408 38.227 75.076 38.115 74.802 37.912 C 74.528 37.708 74.325 37.422 74.223 37.096 C 74.121 36.77 74.126 36.419 74.235 36.096 C 74.345 35.772 74.555 35.492 74.834 35.295 C 75.114 35.098 75.448 34.995 75.79 35 L 82.43 35.2 C 82.834 35.238 83.209 35.426 83.479 35.728 C 83.75 36.03 83.897 36.423 83.891 36.828 C 83.884 37.233 83.725 37.622 83.445 37.915 C 83.165 38.208 82.785 38.385 82.38 38.41 Z"
        fill="#f7931e"/>
    <path
        id="path_10"
        d="M 76 59.42 C 75.78 59.42 75.563 59.369 75.367 59.27 C 75.171 59.171 75 59.027 74.87 58.85 L 72 55 C 71.8 54.763 71.684 54.467 71.671 54.158 C 71.657 53.848 71.747 53.543 71.925 53.29 C 72.104 53.036 72.361 52.849 72.657 52.758 C 72.953 52.667 73.271 52.677 73.561 52.786 C 73.851 52.894 74.097 53.097 74.26 53.36 L 77.05 57.2 C 77.252 57.471 77.349 57.807 77.322 58.144 C 77.294 58.481 77.145 58.796 76.902 59.031 C 76.659 59.266 76.338 59.404 76 59.42 Z"
        fill="#f7931e"/>
    <path
        id="path_11"
        d="M 32.44 39.91 C 33.85 36 40.72 20.65 58.84 30 C 58.943 30.047 59.023 30.132 59.065 30.237 C 59.107 30.341 59.107 30.459 59.065 30.563 C 59.023 30.668 58.943 30.753 58.84 30.8 L 47.19 36.21 C 47.037 36.28 46.88 36.34 46.72 36.39 L 33 40.45 C 32.898 40.489 32.785 40.487 32.684 40.446 C 32.583 40.404 32.501 40.326 32.456 40.226 C 32.411 40.127 32.405 40.013 32.44 39.91 Z"
        fill="#ffffff"/>
</svg>
