<svg
    xmlns="http://www.w3.org/2000/svg"
    viewBox="0 0 100 100"
    id="vector">
    <path
        id="path"
        d="M 20.04 28.14 L 57.26 28.14 L 57.26 83.5 L 20.04 83.5 Z"
        fill="#0f1c4c"/>
    <path
        id="path_1"
        d="M 15.34 15.3 L 62.4 15.3 L 62.4 27.49 L 15.34 27.49 Z"
        fill="#0f1c4c"/>
    <path
        id="path_2"
        d="M 25.49 30.6 L 52.9 30.6 C 53.322 30.6 53.726 30.768 54.024 31.066 C 54.322 31.364 54.49 31.768 54.49 32.19 L 54.49 53.29 C 54.49 53.712 54.322 54.116 54.024 54.414 C 53.726 54.712 53.322 54.88 52.9 54.88 L 25.49 54.88 C 25.068 54.88 24.664 54.712 24.366 54.414 C 24.068 54.116 23.9 53.712 23.9 53.29 L 23.9 32.19 C 23.9 31.768 24.068 31.364 24.366 31.066 C 24.664 30.768 25.068 30.6 25.49 30.6 Z"
        fill="#f7931e"/>
    <path
        id="path_3"
        d="M 24.29 58.19 L 53.02 58.19 C 53.123 58.19 53.223 58.231 53.296 58.304 C 53.369 58.377 53.41 58.477 53.41 58.58 L 53.41 79.23 C 53.41 79.333 53.369 79.433 53.296 79.506 C 53.223 79.579 53.123 79.62 53.02 79.62 L 24.29 79.62 C 24.187 79.62 24.087 79.579 24.014 79.506 C 23.941 79.433 23.9 79.333 23.9 79.23 L 23.9 58.58 C 23.9 58.477 23.941 58.377 24.014 58.304 C 24.087 58.231 24.187 58.19 24.29 58.19 Z"
        fill="#f2f2f2"/>
    <path
        id="path_4"
        d="M 32.7 68.9 L 45.78 68.9 C 46.642 68.9 47.469 69.243 48.078 69.852 C 48.687 70.461 49.03 71.288 49.03 72.15 L 49.03 73.04 C 49.03 73.902 48.687 74.729 48.078 75.338 C 47.469 75.947 46.642 76.29 45.78 76.29 L 32.7 76.29 C 32.13 76.29 31.569 76.14 31.075 75.855 C 30.581 75.569 30.171 75.159 29.885 74.665 C 29.6 74.171 29.45 73.61 29.45 73.04 L 29.45 72.15 C 29.45 71.58 29.6 71.019 29.885 70.525 C 30.171 70.031 30.581 69.621 31.075 69.335 C 31.569 69.05 32.13 68.9 32.7 68.9 Z"
        fill="#0f1c4c"/>
    <path
        id="path_5"
        d="M 30.38 62.25 L 47.36 62.25 C 47.705 62.25 48.036 62.387 48.279 62.631 C 48.523 62.874 48.66 63.205 48.66 63.55 L 48.66 63.91 C 48.66 64.255 48.523 64.586 48.279 64.829 C 48.036 65.073 47.705 65.21 47.36 65.21 L 30.38 65.21 C 30.035 65.21 29.704 65.073 29.461 64.829 C 29.217 64.586 29.08 64.255 29.08 63.91 L 29.08 63.55 C 29.08 63.205 29.217 62.874 29.461 62.631 C 29.704 62.387 30.035 62.25 30.38 62.25 Z"
        fill="#0f1c4c"/>
    <path
        id="path_6"
        d="M 15.26 83.5 L 84.42 83.11"
        fill="#00000000"
        stroke="#0f1c4c"
        stroke-width="7"/>
    <path
        id="path_7"
        d="M 36.44 44.83 C 37.133 44.339 37.961 44.076 38.81 44.076 C 39.659 44.076 40.487 44.339 41.18 44.83 C 41.94 45.336 42.517 46.074 42.824 46.933 C 43.131 47.793 43.153 48.729 42.885 49.602 C 42.618 50.475 42.076 51.238 41.34 51.778 C 40.604 52.319 39.713 52.607 38.8 52.6 L 38.8 52.6 C 37.892 52.595 37.01 52.3 36.282 51.758 C 35.554 51.215 35.019 50.454 34.755 49.585 C 34.491 48.717 34.512 47.786 34.816 46.931 C 35.119 46.075 35.688 45.339 36.44 44.83 Z"
        fill="#e6e8e8"/>
    <path
        id="path_8"
        d="M 57.51 46.52 L 58.7 46.52 C 60.156 46.516 61.587 46.897 62.848 47.623 C 64.11 48.348 65.159 49.394 65.887 50.654 C 66.616 51.914 67 53.344 67 54.8 L 67 79.31 L 57.51 79.31 L 57.51 46.52 Z"
        fill="#0f1c4c"/>
    <path
        id="path_9"
        d="M 60.064 45.836 L 78.597 27.303 C 79.024 26.876 79.556 26.569 80.139 26.413 C 80.722 26.256 81.337 26.256 81.92 26.413 C 82.503 26.569 83.035 26.876 83.462 27.303 L 83.469 27.31 C 83.896 27.737 84.203 28.269 84.359 28.852 C 84.516 29.435 84.516 30.05 84.359 30.633 C 84.203 31.216 83.896 31.748 83.469 32.175 L 64.936 50.708 C 64.509 51.135 63.977 51.442 63.394 51.598 C 62.811 51.755 62.196 51.755 61.613 51.598 C 61.03 51.442 60.498 51.135 60.071 50.708 L 60.064 50.701 C 59.637 50.274 59.33 49.742 59.174 49.159 C 59.017 48.576 59.017 47.961 59.174 47.378 C 59.33 46.795 59.637 46.263 60.064 45.836 Z"
        fill="#0f1c4c"/>
    <path
        id="path_10"
        d="M 62.47 52.83 L 62.47 78.99"
        fill="#00000000"
        stroke="#f2f2f2"
        stroke-width="5"
        stroke-linecap="round"/>
    <path
        id="path_11"
        d="M 66.13 42.02 L 66.13 47.88"
        fill="#f2f2f2"
        stroke="#f7931e"
        stroke-width="2"
        stroke-linecap="round"/>
    <path
        id="path_12"
        d="M 70.42 37.73 L 70.42 43.59"
        fill="#f2f2f2"
        stroke="#f7931e"
        stroke-width="2"
        stroke-linecap="round"/>
    <path
        id="path_13"
        d="M 74.72 33.43 L 74.72 39.29"
        fill="#f2f2f2"
        stroke="#f7931e"
        stroke-width="2"
        stroke-linecap="round"/>
    <path
        id="path_14"
        d="M 79.01 29.14 L 79.01 35"
        fill="#f2f2f2"
        stroke="#f7931e"
        stroke-width="2"
        stroke-linecap="round"/>
</svg>
