<svg
    xmlns="http://www.w3.org/2000/svg"
    viewBox="0 0 100 100"
    id="vector">
    <path
        id="path"
        d="M 50.86 23.12 L 53.98 23.12 L 53.98 29.14 L 50.86 29.14 Z"
        fill="#0f1c4c"/>
    <path
        id="path_1"
        d="M 72.7 37.44 L 72.7 72.44 C 72.684 74.319 72.113 76.152 71.06 77.708 C 70.007 79.264 68.518 80.476 66.78 81.19 C 66.483 81.32 66.179 81.433 65.87 81.53 L 65.87 81.53 C 64.899 81.833 63.887 81.988 62.87 81.99 L 42.32 81.99 C 40.766 82.008 39.229 81.666 37.83 80.99 C 37.35 80.761 36.892 80.49 36.46 80.18 C 36.353 80.109 36.249 80.032 36.15 79.95 C 34.992 79.076 34.052 77.946 33.403 76.648 C 32.755 75.351 32.415 73.921 32.41 72.47 L 32.41 37.47 C 32.457 34.889 33.528 32.431 35.386 30.639 C 37.244 28.847 39.739 27.865 42.32 27.91 L 62.79 27.91 C 65.366 27.864 67.857 28.842 69.714 30.628 C 71.57 32.413 72.645 34.865 72.7 37.44 Z"
        fill="#0f1c4c"/>
    <path
        id="path_2"
        d="M 42.55 16.1 L 45.15 16.1 L 45.15 31.64 L 42.55 31.64 Z"
        fill="#0f1c4c"/>
    <path
        id="path_3"
        d="M 59.7 16.1 L 62.3 16.1 L 62.3 31.64 L 59.7 31.64 Z"
        fill="#0f1c4c"/>
    <path
        id="path_4"
        d="M 49.55 20.61 L 54.77 20.61 C 54.974 20.61 55.17 20.691 55.314 20.836 C 55.459 20.98 55.54 21.176 55.54 21.38 L 55.54 22.85 C 55.54 23.054 55.459 23.25 55.314 23.394 C 55.17 23.539 54.974 23.62 54.77 23.62 L 49.55 23.62 C 49.346 23.62 49.15 23.539 49.006 23.394 C 48.861 23.25 48.78 23.054 48.78 22.85 L 48.78 21.38 C 48.78 21.176 48.861 20.98 49.006 20.836 C 49.15 20.691 49.346 20.61 49.55 20.61 Z"
        fill="#0f1c4c"/>
    <path
        id="path_5"
        d="M 39.66 76.76 L 65.71 76.76 C 66.207 76.76 66.695 76.891 67.125 77.139 C 67.555 77.388 67.912 77.745 68.161 78.175 C 68.409 78.605 68.54 79.093 68.54 79.59 L 68.54 84.96 C 68.54 85.457 68.409 85.945 68.161 86.375 C 67.912 86.805 67.555 87.162 67.125 87.411 C 66.695 87.659 66.207 87.79 65.71 87.79 L 39.66 87.79 C 39.163 87.79 38.675 87.659 38.245 87.411 C 37.815 87.162 37.458 86.805 37.209 86.375 C 36.961 85.945 36.83 85.457 36.83 84.96 L 36.83 79.59 C 36.83 78.84 37.128 78.119 37.659 77.589 C 38.189 77.058 38.91 76.76 39.66 76.76 Z"
        fill="#0f1c4c"/>
    <path
        id="path_6"
        d="M 37.83 81 C 42.65 81.67 49.83 82.22 55.7 80.85 L 36.46 80.19 Z"
        fill="#0f1c4c"/>
    <path
        id="path_7"
        d="M 71.7 38.3 L 71.7 70.65 C 71.733 72.318 71.294 73.961 70.434 75.39 C 69.574 76.819 68.328 77.977 66.84 78.73 C 66.58 78.84 66.34 78.95 66.09 79.04 L 66.09 79.04 C 65.289 79.318 64.448 79.46 63.6 79.46 L 46.74 79.46 C 45.448 79.45 44.18 79.106 43.06 78.46 C 42.66 78.248 42.281 77.996 41.93 77.71 L 41.67 77.5 C 47.45 77.07 51.62 76.79 53.98 76.64 C 59.72 76.27 62.89 76.1 64.69 73.58 C 65.587 72.142 66.024 70.463 65.94 68.77 C 66.36 53.03 67 37.77 67 37.77 C 67 37.77 65.94 32.72 61 33 C 58.7 33.11 58.11 31.39 58.12 29.53 L 63.54 29.53 C 68.06 29.48 71.7 33.43 71.7 38.3 Z"
        fill="#e6e8e8"/>
    <path
        id="path_8"
        d="M 41.81 52.12 C 39.56 55.62 37 65.84 52.66 64.83 C 52.66 64.83 64.42 63.29 59.45 47.83 C 59.45 47.83 56.7 42.51 53.39 40.38 C 53.642 41.333 53.773 42.314 53.78 43.3 C 53.787 45.143 53.37 46.964 52.56 48.62 C 52.532 47.794 52.287 46.991 51.85 46.29 C 51 45 49.86 44.86 49 43.61 C 48.427 42.747 48.14 41.725 48.18 40.69 C 48.079 42.741 47.512 44.742 46.52 46.54 C 44.89 49.39 43.35 49.71 41.81 52.12 Z"
        fill="#f7931e"/>
    <path
        id="path_9"
        d="M 47 59 C 46.1 60.79 45.1 66 51.32 65.51 C 51.32 65.51 56.01 64.72 54.03 56.82 C 53.467 55.403 52.639 54.107 51.59 53 C 51.698 53.489 51.751 53.989 51.75 54.49 C 51.757 55.422 51.591 56.348 51.26 57.22 C 51.263 56.799 51.174 56.383 51 56 C 50.66 55.31 50.21 55.24 49.85 54.6 C 49.616 54.139 49.503 53.626 49.52 53.11 C 49.49 54.142 49.27 55.159 48.87 56.11 C 48.21 57.55 47.59 57.71 47 59 Z"
        fill="#ff5722"/>
    <path
        id="path_10"
        d="M 40.19 11.59 L 65.19 11.59 C 65.506 11.59 65.816 11.673 66.09 11.831 C 66.364 11.989 66.591 12.216 66.749 12.49 C 66.907 12.764 66.99 13.074 66.99 13.39 L 66.99 16.81 C 66.99 17.287 66.8 17.745 66.463 18.083 C 66.125 18.42 65.667 18.61 65.19 18.61 L 40.19 18.61 C 39.713 18.61 39.255 18.42 38.917 18.083 C 38.58 17.745 38.39 17.287 38.39 16.81 L 38.39 13.39 C 38.39 13.074 38.473 12.764 38.631 12.49 C 38.789 12.216 39.016 11.989 39.29 11.831 C 39.564 11.673 39.874 11.59 40.19 11.59 Z"
        fill="#0f1c4c"/>
</svg>
