<svg xmlns="http://www.w3.org/2000/svg" viewBox="0 0 100 100">




            <path class="cls-2"
                fill="#f7931e"
                d="M53.11,44.47c.11,11.45-.79,22.6-1,33.92A5.93,5.93,0,0,1,45.9,84c-3.41,0-6.19-2.51-6.19-5.61a4.58,4.58,0,0,1,0-.64,1.51,1.51,0,0,1,1.73-1.22,1.44,1.44,0,0,1,1.34,1.57,2.81,2.81,0,0,0,0,.29,3.11,3.11,0,0,0,6.19,0L49,78h0c.22-11.17.29-22.22.11-33.53" />
            <path class="cls-2"
                fill="#f2f2f2"
                d="M45.9,84.07c-3.45,0-6.27-2.56-6.27-5.69a4.87,4.87,0,0,1,0-.65,1.59,1.59,0,0,1,1.81-1.29,1.71,1.71,0,0,1,1.12.62,1.39,1.39,0,0,1,.28,1,2.53,2.53,0,0,0,0,.28,3,3,0,0,0,6,0l0-.49h0c.24-12.45.28-23.08.1-33.46h.15c.17,10.39.14,21-.1,33.53v.07h0l0,.35a3.19,3.19,0,0,1-6.35,0,1.46,1.46,0,0,1,0-.3,1.26,1.26,0,0,0-.26-.93,1.51,1.51,0,0,0-1-.56h-.19a1.43,1.43,0,0,0-1.46,1.17,4.54,4.54,0,0,0,0,.63c0,3.05,2.75,5.54,6.12,5.54S52,81.44,52,78.39c.09-4.54.29-9.13.48-13.56.29-6.64.59-13.51.52-20.36h.15c.07,6.86-.23,13.72-.52,20.36-.2,4.44-.4,9-.49,13.56A6,6,0,0,1,45.9,84.07Z" />
            <path class="cls-3"
                fill="#0f1c4c"
                d="M85.23,44.89a10.46,10.46,0,0,0-6.72,3.39c-1.72-2.11-4.93-3.54-8.64-3.54s-6.93,1.43-8.65,3.54c-1.65-2.05-4.77-3.45-8.33-3.52-1.81-.88-3.45.4-4.16.94h0a6.5,6.5,0,0,0-2.74.81,6.32,6.32,0,0,0-2,1.77,11.25,11.25,0,0,0-8.66-3.54c-3.7,0-6.91,1.43-8.63,3.54-1.73-2.11-4.94-3.54-8.65-3.54a13.83,13.83,0,0,0-3.63.5c6.26-9.42,23-20.7,35.21-20.7a27.47,27.47,0,0,1,7.3,1.1l0,0C66.9,28.43,78,36,83.79,43,84.31,43.62,84.79,44.26,85.23,44.89Z" />
            <path class="cls-3"
                d="M71.19,21.54c.7-.81,2.42-5.77,2.42-5.77S68.67,18.4,68,19.21a1.75,1.75,0,0,0,.33,2.62A2.21,2.21,0,0,0,71.19,21.54Z" />
            <path class="cls-3"
                d="M78.72,29.52c.71-.81,2.43-5.77,2.43-5.77s-5,2.63-5.65,3.44a1.76,1.76,0,0,0,.33,2.63A2.2,2.2,0,0,0,78.72,29.52Z" />
            <path class="cls-3"
                d="M80,20.4c.7-.81,2.42-5.77,2.42-5.77s-4.94,2.63-5.65,3.44a1.76,1.76,0,0,0,.34,2.62A2.2,2.2,0,0,0,80,20.4Z" />
            <path class="cls-4"
                d="M82.71,44.44l-1.21-.33c-8.26-2.3-25.26-16.67-25.66-17C65.82,29.89,77,37.45,82.71,44.44Z" />
            <line class="cls-5" x1="48.73" y1="45.7" x2="48.73" y2="45.7" />


</svg>