<svg
    xmlns="http://www.w3.org/2000/svg"
    viewBox="0 0 100 100"
    id="vector">
    <path
        id="path"
        d="M 44.62 13.07 L 77.62 13.07 C 78.545 13.087 79.449 13.348 80.242 13.826 C 81.034 14.303 81.687 14.981 82.134 15.791 C 82.582 16.601 82.808 17.515 82.79 18.44 L 82.79 80.62 C 82.809 81.546 82.584 82.461 82.138 83.273 C 81.691 84.084 81.038 84.764 80.245 85.243 C 79.452 85.721 78.546 85.983 77.62 86 L 25.5 86 C 24.102 85.974 22.77 85.393 21.799 84.387 C 20.828 83.38 20.296 82.028 20.32 80.63 L 20.32 18.44 C 20.296 17.042 20.828 15.69 21.799 14.683 C 22.77 13.677 24.102 13.096 25.5 13.07 L 25.69 13.07"
        fill="#0f1c4c"/>
    <path
        id="path_1"
        d="M 42.09 29.33 L 42.09 74.61 C 42.09 76.1 40.51 77.31 38.55 77.31 L 31.44 77.31 C 29.44 77.31 27.9 76.1 27.9 74.61 L 27.9 29.33 C 27.9 27.84 29.48 26.63 31.44 26.63 L 38.55 26.63 C 40.51 26.63 42.09 27.84 42.09 29.33 Z"
        fill="#f7931e"/>
    <path
        id="path_2"
        d="M 53.2 21.74 L 76.43 21.74 C 76.822 21.74 77.199 21.896 77.477 22.173 C 77.754 22.451 77.91 22.828 77.91 23.22 L 77.91 33.99 C 77.91 34.382 77.754 34.759 77.477 35.037 C 77.199 35.314 76.822 35.47 76.43 35.47 L 53.2 35.47 C 52.808 35.47 52.431 35.314 52.153 35.037 C 51.876 34.759 51.72 34.382 51.72 33.99 L 51.72 23.22 C 51.72 22.828 51.876 22.451 52.153 22.173 C 52.431 21.896 52.808 21.74 53.2 21.74 Z"
        fill="#f2f2f2"
        stroke="#000000"
        stroke-width="0.1"/>
    <path
        id="path_3"
        d="M 52.35 72.02 L 58.33 72.02 L 58.33 77.39 L 52.35 77.39 Z"
        fill="#f2f2f2"
        stroke="#000000"
        stroke-width="0.1"/>
    <path
        id="path_4"
        d="M 61.84 72.02 L 67.82 72.02 L 67.82 77.39 L 61.84 77.39 Z"
        fill="#f2f2f2"
        stroke="#000000"
        stroke-width="0.1"/>
    <path
        id="path_5"
        d="M 70.98 72.02 L 76.96 72.02 L 76.96 77.39 L 70.98 77.39 Z"
        fill="#f2f2f2"
        stroke="#000000"
        stroke-width="0.1"/>
    <path
        id="path_6"
        d="M 52.35 63.2 L 58.33 63.2 L 58.33 68.57 L 52.35 68.57 Z"
        fill="#f2f2f2"
        stroke="#000000"
        stroke-width="0.1"/>
    <path
        id="path_7"
        d="M 61.84 63.2 L 67.82 63.2 L 67.82 68.57 L 61.84 68.57 Z"
        fill="#f2f2f2"
        stroke="#000000"
        stroke-width="0.1"/>
    <path
        id="path_8"
        d="M 70.98 63.2 L 76.96 63.2 L 76.96 68.57 L 70.98 68.57 Z"
        fill="#f2f2f2"
        stroke="#000000"
        stroke-width="0.1"/>
    <path
        id="path_9"
        d="M 52.35 54.37 L 58.33 54.37 L 58.33 59.74 L 52.35 59.74 Z"
        fill="#f2f2f2"
        stroke="#000000"
        stroke-width="0.1"/>
    <path
        id="path_10"
        d="M 61.84 54.37 L 67.82 54.37 L 67.82 59.74 L 61.84 59.74 Z"
        fill="#f2f2f2"
        stroke="#000000"
        stroke-width="0.1"/>
    <path
        id="path_11"
        d="M 70.98 54.37 L 76.96 54.37 L 76.96 59.74 L 70.98 59.74 Z"
        fill="#f2f2f2"
        stroke="#000000"
        stroke-width="0.1"/>
    <path
        id="path_12"
        d="M 52.35 45.54 L 58.33 45.54 L 58.33 50.91 L 52.35 50.91 Z"
        fill="#f2f2f2"
        stroke="#000000"
        stroke-width="0.1"/>
    <path
        id="path_13"
        d="M 61.84 45.54 L 67.82 45.54 L 67.82 50.91 L 61.84 50.91 Z"
        fill="#f2f2f2"
        stroke="#000000"
        stroke-width="0.1"/>
    <path
        id="path_14"
        d="M 70.98 45.54 L 76.96 45.54 L 76.96 50.91 L 70.98 50.91 Z"
        fill="#f2f2f2"
        stroke="#000000"
        stroke-width="0.1"/>
</svg>
