<svg
    xmlns="http://www.w3.org/2000/svg"
    viewBox="0 0 100 100"
    id="vector">
    <path
        id="path"
        d="M 30.49 31 L 69.55 31 C 69.85 31 70.145 31.079 70.405 31.229 C 70.665 31.379 70.881 31.595 71.031 31.855 C 71.181 32.115 71.26 32.41 71.26 32.71 L 71.26 83.97 C 71.26 84.27 71.181 84.565 71.031 84.825 C 70.881 85.085 70.665 85.301 70.405 85.451 C 70.145 85.601 69.85 85.68 69.55 85.68 L 30.49 85.68 C 30.037 85.68 29.601 85.5 29.281 85.179 C 28.96 84.859 28.78 84.423 28.78 83.97 L 28.78 32.71 C 28.78 32.257 28.96 31.821 29.281 31.501 C 29.601 31.18 30.037 31 30.49 31 Z"
        fill="#0f1c4c"/>
    <path
        id="path_1"
        d="M 27.5 14.45 L 72.81 14.45 C 73.351 14.45 73.87 14.665 74.252 15.048 C 74.635 15.43 74.85 15.949 74.85 16.49 L 74.85 32.2 C 74.85 32.741 74.635 33.26 74.252 33.642 C 73.87 34.025 73.351 34.24 72.81 34.24 L 27.5 34.24 C 26.959 34.24 26.44 34.025 26.058 33.642 C 25.675 33.26 25.46 32.741 25.46 32.2 L 25.46 16.49 C 25.46 15.949 25.675 15.43 26.058 15.048 C 26.44 14.665 26.959 14.45 27.5 14.45 Z"
        fill="#0f1c4c"/>
    <path
        id="path_2"
        d="M 34.59 39.77 L 64.47 39.77 C 64.83 39.77 65.183 39.865 65.495 40.045 C 65.807 40.225 66.065 40.483 66.245 40.795 C 66.425 41.107 66.52 41.46 66.52 41.82 L 66.52 51.77 C 66.52 52.13 66.425 52.483 66.245 52.795 C 66.065 53.107 65.807 53.365 65.495 53.545 C 65.183 53.725 64.83 53.82 64.47 53.82 L 34.59 53.82 C 34.047 53.82 33.525 53.604 33.14 53.22 C 32.756 52.835 32.54 52.313 32.54 51.77 L 32.54 41.82 C 32.54 41.277 32.756 40.755 33.14 40.37 C 33.525 39.986 34.047 39.77 34.59 39.77 Z"
        fill="#f2f2f2"/>
    <path
        id="path_3"
        d="M 31.73 17.88 L 67.98 17.88 C 68.113 17.88 68.24 17.933 68.334 18.026 C 68.427 18.12 68.48 18.247 68.48 18.38 L 68.48 29.8 C 68.48 29.933 68.427 30.06 68.334 30.154 C 68.24 30.247 68.113 30.3 67.98 30.3 L 31.73 30.3 C 31.597 30.3 31.47 30.247 31.376 30.154 C 31.283 30.06 31.23 29.933 31.23 29.8 L 31.23 18.38 C 31.23 18.247 31.283 18.12 31.376 18.026 C 31.47 17.933 31.597 17.88 31.73 17.88 Z"
        fill="#00000000"
        stroke="#f2f2f2"
        stroke-width="1"/>
    <path
        id="path_4"
        d="M 46.09 76.55 L 50.44 76.55 L 50.44 80.45 L 46.09 80.45 Z"
        fill="#f7931e"
        stroke="#f7931e"
        stroke-width="0.1"/>
    <path
        id="path_5"
        d="M 53 76.55 L 57.35 76.55 L 57.35 80.45 L 53 80.45 Z"
        fill="#f7931e"
        stroke="#f7931e"
        stroke-width="0.1"/>
    <path
        id="path_6"
        d="M 59.66 76.55 L 64.01 76.55 L 64.01 80.45 L 59.66 80.45 Z"
        fill="#f7931e"
        stroke="#f7931e"
        stroke-width="0.1"/>
    <path
        id="path_7"
        d="M 46.09 70.14 L 50.44 70.14 L 50.44 74.04 L 46.09 74.04 Z"
        fill="#f7931e"
        stroke="#f7931e"
        stroke-width="0.1"/>
    <path
        id="path_8"
        d="M 53 70.14 L 57.35 70.14 L 57.35 74.04 L 53 74.04 Z"
        fill="#f7931e"
        stroke="#f7931e"
        stroke-width="0.1"/>
    <path
        id="path_9"
        d="M 59.66 70.14 L 64.01 70.14 L 64.01 74.04 L 59.66 74.04 Z"
        fill="#f7931e"
        stroke="#f7931e"
        stroke-width="0.1"/>
    <path
        id="path_10"
        d="M 46.09 63.73 L 50.44 63.73 L 50.44 67.63 L 46.09 67.63 Z"
        fill="#f7931e"
        stroke="#f7931e"
        stroke-width="0.1"/>
    <path
        id="path_11"
        d="M 53 63.73 L 57.35 63.73 L 57.35 67.63 L 53 67.63 Z"
        fill="#f7931e"
        stroke="#f7931e"
        stroke-width="0.1"/>
    <path
        id="path_12"
        d="M 59.66 63.73 L 64.01 63.73 L 64.01 67.63 L 59.66 67.63 Z"
        fill="#f7931e"
        stroke="#f7931e"
        stroke-width="0.1"/>
    <path
        id="path_13"
        d="M 46.09 57.32 L 50.44 57.32 L 50.44 61.22 L 46.09 61.22 Z"
        fill="#f7931e"
        stroke="#f7931e"
        stroke-width="0.1"/>
    <path
        id="path_14"
        d="M 53 57.32 L 57.35 57.32 L 57.35 61.22 L 53 61.22 Z"
        fill="#f7931e"
        stroke="#f7931e"
        stroke-width="0.1"/>
    <path
        id="path_15"
        d="M 59.66 57.32 L 64.01 57.32 L 64.01 61.22 L 59.66 61.22 Z"
        fill="#f7931e"
        stroke="#f7931e"
        stroke-width="0.1"/>
    <path
        id="path_16"
        d="M 32.29 65.75 L 41.29 65.75 C 41.613 65.75 41.924 65.879 42.153 66.107 C 42.381 66.336 42.51 66.647 42.51 66.97 L 42.51 68.12 C 42.51 68.443 42.381 68.754 42.153 68.983 C 41.924 69.211 41.613 69.34 41.29 69.34 L 32.29 69.34 C 31.967 69.34 31.656 69.211 31.427 68.983 C 31.199 68.754 31.07 68.443 31.07 68.12 L 31.07 66.97 C 31.07 66.647 31.199 66.336 31.427 66.107 C 31.656 65.879 31.967 65.75 32.29 65.75 Z"
        fill="#f7931e"
        stroke="#f7931e"
        stroke-width="0.1"/>
</svg>
