<svg
    xmlns="http://www.w3.org/2000/svg"
    viewBox="0 0 100 100"
    id="vector">
    <path
        id="path"
        d="M 29.58 10.97 L 70.39 10.97 C 71.077 10.97 71.736 11.243 72.221 11.729 C 72.707 12.214 72.98 12.873 72.98 13.56 L 72.98 86.3 C 72.98 86.987 72.707 87.646 72.221 88.131 C 71.736 88.617 71.077 88.89 70.39 88.89 L 29.58 88.89 C 28.893 88.89 28.234 88.617 27.749 88.131 C 27.263 87.646 26.99 86.987 26.99 86.3 L 26.99 13.56 C 26.99 12.873 27.263 12.214 27.749 11.729 C 28.234 11.243 28.893 10.97 29.58 10.97 Z"
        fill="#0f1c4c"/>
    <path
        id="path_1"
        d="M 36.36 25.82 L 62.76 25.82 C 63.141 25.82 63.515 25.92 63.845 26.111 C 64.175 26.301 64.449 26.575 64.639 26.905 C 64.83 27.235 64.93 27.609 64.93 27.99 L 64.93 69.16 C 64.93 69.541 64.83 69.915 64.639 70.245 C 64.449 70.575 64.175 70.849 63.845 71.039 C 63.515 71.23 63.141 71.33 62.76 71.33 L 36.36 71.33 C 35.979 71.33 35.605 71.23 35.275 71.039 C 34.945 70.849 34.671 70.575 34.481 70.245 C 34.29 69.915 34.19 69.541 34.19 69.16 L 34.19 27.99 C 34.19 27.415 34.419 26.862 34.826 26.456 C 35.232 26.049 35.785 25.82 36.36 25.82 Z"
        fill="#e4e4e4"/>
    <path
        id="path_2"
        d="M 46.88 81.77 C 46.88 82.51 47.177 83.22 47.706 83.743 C 48.235 84.266 48.952 84.56 49.7 84.56 C 50.448 84.56 51.165 84.266 51.694 83.743 C 52.223 83.22 52.52 82.51 52.52 81.77 C 52.52 81.03 52.223 80.32 51.694 79.797 C 51.165 79.274 50.448 78.98 49.7 78.98 C 48.952 78.98 48.235 79.274 47.706 79.797 C 47.177 80.32 46.88 81.03 46.88 81.77 Z"
        fill="#e68a02"/>
    <path
        id="path_3"
        d="M 43.01 15.58 L 57.81 15.58 C 57.98 15.58 58.143 15.647 58.263 15.767 C 58.383 15.887 58.45 16.05 58.45 16.22 L 58.45 16.89 C 58.45 17.06 58.383 17.223 58.263 17.343 C 58.143 17.463 57.98 17.53 57.81 17.53 L 43.01 17.53 C 42.84 17.53 42.677 17.463 42.557 17.343 C 42.437 17.223 42.37 17.06 42.37 16.89 L 42.37 16.22 C 42.37 16.05 42.437 15.887 42.557 15.767 C 42.677 15.647 42.84 15.58 43.01 15.58 Z"
        fill="#e68a02"/>
</svg>
