<svg
    xmlns="http://www.w3.org/2000/svg"
    viewBox="0 0 100 100"
    id="vector">
    <path
        id="path"
        d="M 12.95 28.07 L 87.95 28.07 L 87.95 71.18 L 12.95 71.18 Z"
        fill="#223d9f"/>
    <path
        id="path_1"
        d="M 11.26 29.76 L 86.26 29.76 L 86.26 72.87 L 11.26 72.87 Z"
        fill="#223d9f"/>
    <path
        id="path_2"
        d="M 13.27 35.13 L 84.27 35.13 L 84.27 66.66 L 13.27 66.66 Z"
        fill="#0f1c4c"/>
    <path
        id="path_3"
        d="M 22.4 50.9 C 22.4 58.024 25.223 64.863 30.244 69.9 C 35.264 74.937 42.08 77.77 49.18 77.77 C 56.28 77.77 63.096 74.937 68.116 69.9 C 73.137 64.863 75.96 58.024 75.96 50.9 C 75.96 43.776 73.137 36.937 68.116 31.9 C 63.096 26.863 56.28 24.03 49.18 24.03 C 42.08 24.03 35.264 26.863 30.244 31.9 C 25.223 36.937 22.4 43.776 22.4 50.9 Z"
        fill="#0f1c4c"/>
    <path
        id="path_4"
        d="M 10.96 13.81 L 67.68 13.81 L 67.68 18.21 L 10.96 18.21 Z"
        fill="#e68a02"/>
    <path
        id="path_5"
        d="M 59.76 23.34 L 59.76 7.76 L 73.25 15.55 Z M 64.16 15.34 L 64.16 15.68 L 64.46 15.51 Z"
        fill="#e68a02"/>
    <path
        id="path_6"
        d="M 32.57 82.48 L 88.38 82.48 L 88.38 86.81 L 32.57 86.81 Z"
        fill="#e68a02"/>
    <path
        id="path_7"
        d="M 40.36 77.44 L 40.36 92.76 L 27.08 85.1 Z M 36 85.27 L 36 84.93 L 35.71 85.1 Z"
        fill="#e68a02"/>
    <path
        id="path_8"
        d="M 30.88 37.89 L 49.38 28.78 C 49.483 28.73 49.596 28.705 49.71 28.705 C 49.824 28.705 49.937 28.73 50.04 28.78 L 68.54 37.89 C 68.696 37.962 68.822 38.086 68.898 38.241 C 68.973 38.395 68.993 38.571 68.955 38.739 C 68.916 38.906 68.821 39.056 68.685 39.161 C 68.55 39.267 68.382 39.323 68.21 39.32 L 31.21 39.32 C 31.038 39.323 30.87 39.267 30.735 39.161 C 30.599 39.056 30.504 38.906 30.465 38.739 C 30.427 38.571 30.447 38.395 30.522 38.241 C 30.598 38.086 30.724 37.962 30.88 37.89 Z"
        fill="#e6e8e8"/>
    <path
        id="path_9"
        d="M 34.08 40.38 L 64.8 40.38 C 65.065 40.38 65.32 40.485 65.507 40.673 C 65.695 40.86 65.8 41.115 65.8 41.38 L 65.8 41.49 C 65.8 41.755 65.695 42.01 65.507 42.197 C 65.32 42.385 65.065 42.49 64.8 42.49 L 34.08 42.49 C 33.815 42.49 33.56 42.385 33.373 42.197 C 33.185 42.01 33.08 41.755 33.08 41.49 L 33.08 41.38 C 33.08 41.115 33.185 40.86 33.373 40.673 C 33.56 40.485 33.815 40.38 34.08 40.38 Z"
        fill="#e6e8e8"/>
    <path
        id="path_10"
        d="M 34.08 60.43 L 64.8 60.43 C 65.065 60.43 65.32 60.535 65.507 60.723 C 65.695 60.91 65.8 61.165 65.8 61.43 L 65.8 61.54 C 65.8 61.805 65.695 62.06 65.507 62.247 C 65.32 62.435 65.065 62.54 64.8 62.54 L 34.08 62.54 C 33.815 62.54 33.56 62.435 33.373 62.247 C 33.185 62.06 33.08 61.805 33.08 61.54 L 33.08 61.43 C 33.08 61.165 33.185 60.91 33.373 60.723 C 33.56 60.535 33.815 60.43 34.08 60.43 Z"
        fill="#e6e8e8"/>
    <path
        id="path_11"
        d="M 32.46 63.6 L 66.4 63.6 C 66.798 63.6 67.179 63.758 67.461 64.039 C 67.742 64.321 67.9 64.702 67.9 65.1 L 67.9 65.27 C 67.9 65.668 67.742 66.049 67.461 66.331 C 67.179 66.612 66.798 66.77 66.4 66.77 L 32.46 66.77 C 32.062 66.77 31.681 66.612 31.399 66.331 C 31.118 66.049 30.96 65.668 30.96 65.27 L 30.96 65.1 C 30.96 64.702 31.118 64.321 31.399 64.039 C 31.681 63.758 32.062 63.6 32.46 63.6 Z"
        fill="#e6e8e8"/>
    <path
        id="path_12"
        d="M 38.36 41.43 L 38.36 61.48 L 35.19 61.48 L 35.19 41.43 Z"
        fill="#e6e8e8"/>
    <path
        id="path_13"
        d="M 46.8 41.43 L 46.8 61.48 L 43.63 61.48 L 43.63 41.43 Z"
        fill="#e6e8e8"/>
    <path
        id="path_14"
        d="M 63.69 41.43 L 63.69 61.48 L 60.52 61.48 L 60.52 41.43 Z"
        fill="#e6e8e8"/>
    <path
        id="path_15"
        d="M 55.25 41.43 L 55.25 61.48 L 52.08 61.48 L 52.08 41.43 Z"
        fill="#e6e8e8"/>
</svg>
