<svg
    xmlns="http://www.w3.org/2000/svg"
    viewBox="0 0 24 24"
    id="vector">
    <path
        id="path"
        d="M 21 18 L 21 19 C 21 20.1 20.1 21 19 21 L 5 21 C 3.89 21 3 20.1 3 19 L 3 5 C 3 3.9 3.89 3 5 3 L 19 3 C 20.1 3 21 3.9 21 5 L 21 6 L 12 6 C 10.89 6 10 6.9 10 8 L 10 16 C 10 17.1 10.89 18 12 18 L 21 18 Z M 12 16 L 22 16 L 22 8 L 12 8 L 12 16 Z M 16 13.5 C 15.17 13.5 14.5 12.83 14.5 12 C 14.5 11.17 15.17 10.5 16 10.5 C 16.83 10.5 17.5 11.17 17.5 12 C 17.5 12.83 16.83 13.5 16 13.5 Z"
        fill="#0f1c4c"/>
</svg>
