<svg
    xmlns="http://www.w3.org/2000/svg"
    viewBox="0 0 100 100"
    id="vector">
    <path
        id="path"
        d="M 50.84 25.89 L 57.24 25.89 L 57.24 35.19 L 50.84 35.19 Z"
        fill="#0f1c4c"/>
    <path
        id="path_1"
        d="M 49.38 14.74 L 58.7 14.74 C 60.251 14.74 61.74 15.357 62.837 16.453 C 63.933 17.55 64.55 19.039 64.55 20.59 L 64.55 21.9 C 64.55 23.451 63.933 24.94 62.837 26.037 C 61.74 27.133 60.251 27.75 58.7 27.75 L 49.38 27.75 C 47.829 27.75 46.34 27.133 45.243 26.037 C 44.147 24.94 43.53 23.451 43.53 21.9 L 43.53 20.59 C 43.53 19.039 44.147 17.55 45.243 16.453 C 46.34 15.357 47.829 14.74 49.38 14.74 Z"
        fill="#0f1c4c"/>
    <path
        id="path_2"
        d="M 19.31 40.3 L 30.28 40.3 L 30.28 64.93 L 19.31 64.93 Z"
        fill="#0f1c4c"/>
    <path
        id="path_3"
        d="M 17.58 64.47 L 32 64.47 C 32.66 64.47 33.308 64.644 33.88 64.974 C 34.452 65.304 34.926 65.778 35.256 66.35 C 35.586 66.922 35.76 67.57 35.76 68.23 L 35.76 69.08 C 35.76 70.077 35.364 71.034 34.659 71.739 C 33.954 72.444 32.997 72.84 32 72.84 L 17.58 72.84 C 16.583 72.84 15.626 72.444 14.921 71.739 C 14.216 71.034 13.82 70.077 13.82 69.08 L 13.82 68.23 C 13.82 67.57 13.994 66.922 14.324 66.35 C 14.654 65.778 15.128 65.304 15.7 64.974 C 16.272 64.644 16.92 64.47 17.58 64.47 Z"
        fill="#0f1c4c"/>
    <path
        id="path_4"
        d="M 83.3 43.09 L 83.3 48.67 C 83.305 49.398 83.119 50.116 82.759 50.749 C 82.399 51.383 81.879 51.91 81.251 52.279 C 80.623 52.648 79.908 52.845 79.18 52.85 L 66.38 52.85 C 66.381 53.503 66.331 54.155 66.23 54.8 C 65.825 57.588 64.439 60.143 62.322 62.002 C 60.205 63.862 57.492 64.906 54.675 64.947 C 51.858 64.988 49.116 64.023 46.946 62.226 C 44.775 60.429 43.315 57.916 42.83 55.14 C 42.689 54.385 42.619 53.618 42.62 52.85 L 19.31 52.85 C 18.582 52.845 17.868 52.648 17.241 52.279 C 16.614 51.91 16.095 51.382 15.736 50.748 C 15.378 50.115 15.193 49.398 15.2 48.67 L 15.2 43.09 C 15.191 42.362 15.375 41.644 15.733 41.01 C 16.091 40.375 16.611 39.847 17.239 39.478 C 17.867 39.11 18.582 38.913 19.31 38.91 L 79.18 38.91 C 79.909 38.913 80.624 39.109 81.253 39.478 C 81.882 39.846 82.403 40.375 82.762 41.009 C 83.121 41.643 83.307 42.361 83.3 43.09 Z"
        fill="#0f1c4c"/>
    <path
        id="path_5"
        d="M 46.96 34.26 L 62.05 34.26 C 62.491 34.26 62.923 34.376 63.305 34.596 C 63.687 34.817 64.003 35.133 64.224 35.515 C 64.444 35.897 64.56 36.329 64.56 36.77 L 64.56 37.33 C 64.56 37.995 64.295 38.634 63.825 39.105 C 63.354 39.575 62.715 39.84 62.05 39.84 L 46.96 39.84 C 46.295 39.84 45.656 39.575 45.185 39.105 C 44.715 38.634 44.45 37.995 44.45 37.33 L 44.45 36.77 C 44.45 36.329 44.566 35.897 44.786 35.515 C 45.007 35.133 45.323 34.817 45.705 34.596 C 46.087 34.376 46.519 34.26 46.96 34.26 Z"
        fill="#e68a02"/>
    <path
        id="path_6"
        d="M 62.45 53.5 C 62.207 55.411 61.282 57.172 59.846 58.456 C 58.409 59.741 56.556 60.464 54.63 60.492 C 52.703 60.52 50.83 59.851 49.357 58.609 C 47.884 57.367 46.908 55.634 46.61 53.73 L 47.09 52.83 C 47.09 52.83 49.87 59.41 53.58 55.64 C 57.29 51.87 56.68 58.78 59.15 55.64 C 60.5 53.92 61.67 53.51 62.45 53.5 Z"
        fill="#e6e8e8"/>
    <path
        id="path_7"
        d="M 24.55 87 L 23.21 87 C 22.4 86.995 21.616 86.707 20.996 86.186 C 20.376 85.665 19.958 84.942 19.814 84.145 C 19.671 83.348 19.811 82.525 20.21 81.82 L 23.89 75.34 L 27.57 81.82 C 27.97 82.527 28.11 83.352 27.964 84.152 C 27.819 84.951 27.397 85.674 26.773 86.195 C 26.15 86.715 25.362 87 24.55 87 Z"
        fill="#e68a02"/>
    <path
        id="path_8"
        d="M 79.49 26.82 L 80.69 26.82 C 82.106 26.82 83.465 27.383 84.466 28.384 C 85.467 29.385 86.03 30.744 86.03 32.16 L 86.03 57.73 C 86.03 59.146 85.467 60.505 84.466 61.506 C 83.465 62.507 82.106 63.07 80.69 63.07 L 79.49 63.07 C 78.074 63.07 76.715 62.507 75.714 61.506 C 74.713 60.505 74.15 59.146 74.15 57.73 L 74.15 32.16 C 74.15 30.744 74.713 29.385 75.714 28.384 C 76.715 27.383 78.074 26.82 79.49 26.82 Z"
        fill="#e68a02"/>
</svg>
